solid Mesh
  facet normal 0 0 1
    outer loop
      vertex 0.0650073 0.00972931 0.01
      vertex 0.065 0.01 0.01
      vertex 0.065 -0.01 0.01
    endloop
  endfacet
  facet normal 0 0 1
    outer loop
      vertex 0.0748177 0.00866236 0.01
      vertex 0.0746449 0.00814931 0.01
      vertex 0.085 0.01 0.01
    endloop
  endfacet
  facet normal 0 0 1
    outer loop
      vertex 0.0746449 0.00814931 0.01
      vertex 0.0744176 0.00765796 0.01
      vertex 0.085 0.01 0.01
    endloop
  endfacet
  facet normal 0 0 1
    outer loop
      vertex 0.085 0.01 0.01
      vertex 0.0744176 0.00765796 0.01
      vertex 0.0741384 0.00719406 0.01
    endloop
  endfacet
  facet normal 0 0 1
    outer loop
      vertex 0.075 0.01 0.01
      vertex 0.0749927 0.00972931 0.01
      vertex 0.085 0.01 0.01
    endloop
  endfacet
  facet normal 0 0 1
    outer loop
      vertex 0.0749927 0.00972931 0.01
      vertex 0.0749341 0.00919109 0.01
      vertex 0.085 0.01 0.01
    endloop
  endfacet
  facet normal 0 0 1
    outer loop
      vertex 0.085 0.01 0.01
      vertex 0.0749341 0.00919109 0.01
      vertex 0.0748177 0.00866236 0.01
    endloop
  endfacet
  facet normal 0 0 1
    outer loop
      vertex 0.0694594 0.00502931 0.01
      vertex 0.0689251 0.0051169 0.01
      vertex 0.065 -0.01 0.01
    endloop
  endfacet
  facet normal 0 0 1
    outer loop
      vertex 0.0653551 0.00814931 0.01
      vertex 0.0651823 0.00866236 0.01
      vertex 0.065 -0.01 0.01
    endloop
  endfacet
  facet normal 0 0 1
    outer loop
      vertex 0.0651823 0.00866236 0.01
      vertex 0.0650659 0.00919109 0.01
      vertex 0.065 -0.01 0.01
    endloop
  endfacet
  facet normal 0 0 1
    outer loop
      vertex 0.065 -0.01 0.01
      vertex 0.0650659 0.00919109 0.01
      vertex 0.0650073 0.00972931 0.01
    endloop
  endfacet
  facet normal 0 0 1
    outer loop
      vertex 0.0741384 0.00719406 0.01
      vertex 0.0738108 0.00676307 0.01
      vertex 0.085 0.01 0.01
    endloop
  endfacet
  facet normal 0 0 1
    outer loop
      vertex 0.0738108 0.00676307 0.01
      vertex 0.0734385 0.00637002 0.01
      vertex 0.085 0.01 0.01
    endloop
  endfacet
  facet normal 0 0 1
    outer loop
      vertex 0.085 0.01 0.01
      vertex 0.0734385 0.00637002 0.01
      vertex 0.065 -0.01 0.01
    endloop
  endfacet
  facet normal 0 0 1
    outer loop
      vertex 0.0734385 0.00637002 0.01
      vertex 0.0730259 0.00601953 0.01
      vertex 0.065 -0.01 0.01
    endloop
  endfacet
  facet normal 0 0 1
    outer loop
      vertex 0.065 -0.01 0.01
      vertex 0.0730259 0.00601953 0.01
      vertex 0.0725778 0.00571571 0.01
    endloop
  endfacet
  facet normal 0 0 1
    outer loop
      vertex 0.0689251 0.0051169 0.01
      vertex 0.0684035 0.00526173 0.01
      vertex 0.065 -0.01 0.01
    endloop
  endfacet
  facet normal 0 0 1
    outer loop
      vertex 0.0684035 0.00526173 0.01
      vertex 0.0679006 0.00546212 0.01
      vertex 0.065 -0.01 0.01
    endloop
  endfacet
  facet normal 0 0 1
    outer loop
      vertex 0.065 -0.01 0.01
      vertex 0.0679006 0.00546212 0.01
      vertex 0.0674222 0.00571571 0.01
    endloop
  endfacet
  facet normal 0 0 1
    outer loop
      vertex 0.0674222 0.00571571 0.01
      vertex 0.0669741 0.00601953 0.01
      vertex 0.065 -0.01 0.01
    endloop
  endfacet
  facet normal 0 0 1
    outer loop
      vertex 0.0669741 0.00601953 0.01
      vertex 0.0665615 0.00637002 0.01
      vertex 0.065 -0.01 0.01
    endloop
  endfacet
  facet normal 0 0 1
    outer loop
      vertex 0.065 -0.01 0.01
      vertex 0.0665615 0.00637002 0.01
      vertex 0.0661892 0.00676307 0.01
    endloop
  endfacet
  facet normal 0 0 1
    outer loop
      vertex 0.0661892 0.00676307 0.01
      vertex 0.0658616 0.00719406 0.01
      vertex 0.065 -0.01 0.01
    endloop
  endfacet
  facet normal 0 0 1
    outer loop
      vertex 0.0658616 0.00719406 0.01
      vertex 0.0655824 0.00765796 0.01
      vertex 0.065 -0.01 0.01
    endloop
  endfacet
  facet normal 0 0 1
    outer loop
      vertex 0.065 -0.01 0.01
      vertex 0.0655824 0.00765796 0.01
      vertex 0.0653551 0.00814931 0.01
    endloop
  endfacet
  facet normal 0 0 1
    outer loop
      vertex 0.0725778 0.00571571 0.01
      vertex 0.0720994 0.00546212 0.01
      vertex 0.065 -0.01 0.01
    endloop
  endfacet
  facet normal 0 0 1
    outer loop
      vertex 0.0720994 0.00546212 0.01
      vertex 0.0715965 0.00526173 0.01
      vertex 0.065 -0.01 0.01
    endloop
  endfacet
  facet normal 0 0 1
    outer loop
      vertex 0.065 -0.01 0.01
      vertex 0.0715965 0.00526173 0.01
      vertex 0.0710749 0.0051169 0.01
    endloop
  endfacet
  facet normal 0 0 1
    outer loop
      vertex 0.0710749 0.0051169 0.01
      vertex 0.0705406 0.00502931 0.01
      vertex 0.065 -0.01 0.01
    endloop
  endfacet
  facet normal 0 0 1
    outer loop
      vertex 0.0705406 0.00502931 0.01
      vertex 0.07 0.005 0.01
      vertex 0.065 -0.01 0.01
    endloop
  endfacet
  facet normal 0 0 1
    outer loop
      vertex 0.065 -0.01 0.01
      vertex 0.07 0.005 0.01
      vertex 0.0694594 0.00502931 0.01
    endloop
  endfacet
  facet normal 0 0 1
    outer loop
      vertex 0.07 0.005 0.02
      vertex 0.0705406 0.00502931 0.02
      vertex 0.07 0.01 0.02
    endloop
  endfacet
  facet normal 0 0 1
    outer loop
      vertex 0.0684035 0.00526173 0.02
      vertex 0.0689251 0.0051169 0.02
      vertex 0.07 0.01 0.02
    endloop
  endfacet
  facet normal 0 0 1
    outer loop
      vertex 0.0689251 0.0051169 0.02
      vertex 0.0694594 0.00502931 0.02
      vertex 0.07 0.01 0.02
    endloop
  endfacet
  facet normal 0 0 1
    outer loop
      vertex 0.07 0.01 0.02
      vertex 0.0694594 0.00502931 0.02
      vertex 0.07 0.005 0.02
    endloop
  endfacet
  facet normal 0 0 1
    outer loop
      vertex 0.0669741 0.00601953 0.02
      vertex 0.0674222 0.00571571 0.02
      vertex 0.07 0.01 0.02
    endloop
  endfacet
  facet normal 0 0 1
    outer loop
      vertex 0.0674222 0.00571571 0.02
      vertex 0.0679006 0.00546212 0.02
      vertex 0.07 0.01 0.02
    endloop
  endfacet
  facet normal 0 0 1
    outer loop
      vertex 0.07 0.01 0.02
      vertex 0.0679006 0.00546212 0.02
      vertex 0.0684035 0.00526173 0.02
    endloop
  endfacet
  facet normal 0 0 1
    outer loop
      vertex 0.0658616 0.00719406 0.02
      vertex 0.0661892 0.00676307 0.02
      vertex 0.07 0.01 0.02
    endloop
  endfacet
  facet normal 0 0 1
    outer loop
      vertex 0.0661892 0.00676307 0.02
      vertex 0.0665615 0.00637002 0.02
      vertex 0.07 0.01 0.02
    endloop
  endfacet
  facet normal 0 0 1
    outer loop
      vertex 0.07 0.01 0.02
      vertex 0.0665615 0.00637002 0.02
      vertex 0.0669741 0.00601953 0.02
    endloop
  endfacet
  facet normal 0 0 1
    outer loop
      vertex 0.0651823 0.00866236 0.02
      vertex 0.0653551 0.00814931 0.02
      vertex 0.07 0.01 0.02
    endloop
  endfacet
  facet normal 0 0 1
    outer loop
      vertex 0.0653551 0.00814931 0.02
      vertex 0.0655824 0.00765796 0.02
      vertex 0.07 0.01 0.02
    endloop
  endfacet
  facet normal 0 0 1
    outer loop
      vertex 0.07 0.01 0.02
      vertex 0.0655824 0.00765796 0.02
      vertex 0.0658616 0.00719406 0.02
    endloop
  endfacet
  facet normal 0 0 1
    outer loop
      vertex 0.0650073 0.0102707 0.02
      vertex 0.0650073 0.00972931 0.02
      vertex 0.07 0.01 0.02
    endloop
  endfacet
  facet normal 0 0 1
    outer loop
      vertex 0.0650073 0.00972931 0.02
      vertex 0.0650659 0.00919109 0.02
      vertex 0.07 0.01 0.02
    endloop
  endfacet
  facet normal 0 0 1
    outer loop
      vertex 0.07 0.01 0.02
      vertex 0.0650659 0.00919109 0.02
      vertex 0.0651823 0.00866236 0.02
    endloop
  endfacet
  facet normal 0 0 1
    outer loop
      vertex 0.0653551 0.0118507 0.02
      vertex 0.0651823 0.0113376 0.02
      vertex 0.07 0.01 0.02
    endloop
  endfacet
  facet normal 0 0 1
    outer loop
      vertex 0.0651823 0.0113376 0.02
      vertex 0.0650659 0.0108089 0.02
      vertex 0.07 0.01 0.02
    endloop
  endfacet
  facet normal 0 0 1
    outer loop
      vertex 0.07 0.01 0.02
      vertex 0.0650659 0.0108089 0.02
      vertex 0.0650073 0.0102707 0.02
    endloop
  endfacet
  facet normal 0 0 1
    outer loop
      vertex 0.0661892 0.0132369 0.02
      vertex 0.0658616 0.0128059 0.02
      vertex 0.07 0.01 0.02
    endloop
  endfacet
  facet normal 0 0 1
    outer loop
      vertex 0.0658616 0.0128059 0.02
      vertex 0.0655824 0.012342 0.02
      vertex 0.07 0.01 0.02
    endloop
  endfacet
  facet normal 0 0 1
    outer loop
      vertex 0.07 0.01 0.02
      vertex 0.0655824 0.012342 0.02
      vertex 0.0653551 0.0118507 0.02
    endloop
  endfacet
  facet normal 0 0 1
    outer loop
      vertex 0.0674222 0.0142843 0.02
      vertex 0.0669741 0.0139805 0.02
      vertex 0.07 0.01 0.02
    endloop
  endfacet
  facet normal 0 0 1
    outer loop
      vertex 0.0669741 0.0139805 0.02
      vertex 0.0665615 0.01363 0.02
      vertex 0.07 0.01 0.02
    endloop
  endfacet
  facet normal 0 0 1
    outer loop
      vertex 0.07 0.01 0.02
      vertex 0.0665615 0.01363 0.02
      vertex 0.0661892 0.0132369 0.02
    endloop
  endfacet
  facet normal 0 0 1
    outer loop
      vertex 0.0689251 0.0148831 0.02
      vertex 0.0684035 0.0147383 0.02
      vertex 0.07 0.01 0.02
    endloop
  endfacet
  facet normal 0 0 1
    outer loop
      vertex 0.0684035 0.0147383 0.02
      vertex 0.0679006 0.0145379 0.02
      vertex 0.07 0.01 0.02
    endloop
  endfacet
  facet normal 0 0 1
    outer loop
      vertex 0.07 0.01 0.02
      vertex 0.0679006 0.0145379 0.02
      vertex 0.0674222 0.0142843 0.02
    endloop
  endfacet
  facet normal 0 0 1
    outer loop
      vertex 0.0705406 0.0149707 0.02
      vertex 0.07 0.015 0.02
      vertex 0.07 0.01 0.02
    endloop
  endfacet
  facet normal 0 0 1
    outer loop
      vertex 0.07 0.015 0.02
      vertex 0.0694594 0.0149707 0.02
      vertex 0.07 0.01 0.02
    endloop
  endfacet
  facet normal 0 0 1
    outer loop
      vertex 0.07 0.01 0.02
      vertex 0.0694594 0.0149707 0.02
      vertex 0.0689251 0.0148831 0.02
    endloop
  endfacet
  facet normal 0 0 1
    outer loop
      vertex 0.0720994 0.0145379 0.02
      vertex 0.0715965 0.0147383 0.02
      vertex 0.07 0.01 0.02
    endloop
  endfacet
  facet normal 0 0 1
    outer loop
      vertex 0.0715965 0.0147383 0.02
      vertex 0.0710749 0.0148831 0.02
      vertex 0.07 0.01 0.02
    endloop
  endfacet
  facet normal 0 0 1
    outer loop
      vertex 0.07 0.01 0.02
      vertex 0.0710749 0.0148831 0.02
      vertex 0.0705406 0.0149707 0.02
    endloop
  endfacet
  facet normal 0 0 1
    outer loop
      vertex 0.0734385 0.01363 0.02
      vertex 0.0730259 0.0139805 0.02
      vertex 0.07 0.01 0.02
    endloop
  endfacet
  facet normal 0 0 1
    outer loop
      vertex 0.0730259 0.0139805 0.02
      vertex 0.0725778 0.0142843 0.02
      vertex 0.07 0.01 0.02
    endloop
  endfacet
  facet normal 0 0 1
    outer loop
      vertex 0.07 0.01 0.02
      vertex 0.0725778 0.0142843 0.02
      vertex 0.0720994 0.0145379 0.02
    endloop
  endfacet
  facet normal 0 0 1
    outer loop
      vertex 0.0744176 0.012342 0.02
      vertex 0.0741384 0.0128059 0.02
      vertex 0.07 0.01 0.02
    endloop
  endfacet
  facet normal 0 0 1
    outer loop
      vertex 0.0741384 0.0128059 0.02
      vertex 0.0738108 0.0132369 0.02
      vertex 0.07 0.01 0.02
    endloop
  endfacet
  facet normal 0 0 1
    outer loop
      vertex 0.07 0.01 0.02
      vertex 0.0738108 0.0132369 0.02
      vertex 0.0734385 0.01363 0.02
    endloop
  endfacet
  facet normal 0 0 1
    outer loop
      vertex 0.0749341 0.0108089 0.02
      vertex 0.0748177 0.0113376 0.02
      vertex 0.07 0.01 0.02
    endloop
  endfacet
  facet normal 0 0 1
    outer loop
      vertex 0.0748177 0.0113376 0.02
      vertex 0.0746449 0.0118507 0.02
      vertex 0.07 0.01 0.02
    endloop
  endfacet
  facet normal 0 0 1
    outer loop
      vertex 0.07 0.01 0.02
      vertex 0.0746449 0.0118507 0.02
      vertex 0.0744176 0.012342 0.02
    endloop
  endfacet
  facet normal 0 0 1
    outer loop
      vertex 0.0749341 0.00919109 0.02
      vertex 0.0749927 0.00972931 0.02
      vertex 0.07 0.01 0.02
    endloop
  endfacet
  facet normal 0 0 1
    outer loop
      vertex 0.0749927 0.00972931 0.02
      vertex 0.0749927 0.0102707 0.02
      vertex 0.07 0.01 0.02
    endloop
  endfacet
  facet normal 0 0 1
    outer loop
      vertex 0.07 0.01 0.02
      vertex 0.0749927 0.0102707 0.02
      vertex 0.0749341 0.0108089 0.02
    endloop
  endfacet
  facet normal 0 0 1
    outer loop
      vertex 0.0744176 0.00765796 0.02
      vertex 0.0746449 0.00814931 0.02
      vertex 0.07 0.01 0.02
    endloop
  endfacet
  facet normal 0 0 1
    outer loop
      vertex 0.0746449 0.00814931 0.02
      vertex 0.0748177 0.00866236 0.02
      vertex 0.07 0.01 0.02
    endloop
  endfacet
  facet normal 0 0 1
    outer loop
      vertex 0.07 0.01 0.02
      vertex 0.0748177 0.00866236 0.02
      vertex 0.0749341 0.00919109 0.02
    endloop
  endfacet
  facet normal 0 0 1
    outer loop
      vertex 0.0734385 0.00637002 0.02
      vertex 0.0738108 0.00676307 0.02
      vertex 0.07 0.01 0.02
    endloop
  endfacet
  facet normal 0 0 1
    outer loop
      vertex 0.0738108 0.00676307 0.02
      vertex 0.0741384 0.00719406 0.02
      vertex 0.07 0.01 0.02
    endloop
  endfacet
  facet normal 0 0 1
    outer loop
      vertex 0.07 0.01 0.02
      vertex 0.0741384 0.00719406 0.02
      vertex 0.0744176 0.00765796 0.02
    endloop
  endfacet
  facet normal 0 0 1
    outer loop
      vertex 0.0720994 0.00546212 0.02
      vertex 0.0725778 0.00571571 0.02
      vertex 0.07 0.01 0.02
    endloop
  endfacet
  facet normal 0 0 1
    outer loop
      vertex 0.0725778 0.00571571 0.02
      vertex 0.0730259 0.00601953 0.02
      vertex 0.07 0.01 0.02
    endloop
  endfacet
  facet normal 0 0 1
    outer loop
      vertex 0.07 0.01 0.02
      vertex 0.0730259 0.00601953 0.02
      vertex 0.0734385 0.00637002 0.02
    endloop
  endfacet
  facet normal 0 0 1
    outer loop
      vertex 0.0705406 0.00502931 0.02
      vertex 0.0710749 0.0051169 0.02
      vertex 0.07 0.01 0.02
    endloop
  endfacet
  facet normal 0 0 1
    outer loop
      vertex 0.0710749 0.0051169 0.02
      vertex 0.0715965 0.00526173 0.02
      vertex 0.07 0.01 0.02
    endloop
  endfacet
  facet normal 0 0 1
    outer loop
      vertex 0.07 0.01 0.02
      vertex 0.0715965 0.00526173 0.02
      vertex 0.0720994 0.00546212 0.02
    endloop
  endfacet
  facet normal 0.999632 -0.0271011 0.00146722
    outer loop
      vertex 0.0749927 0.00972931 0.01
      vertex 0.075 0.01 0.01
      vertex 0.0749927 0.0102707 0.02
    endloop
  endfacet
  facet normal 1 0 0
    outer loop
      vertex 0.0749927 0.0102707 0.02
      vertex 0.0749927 0.00972931 0.02
      vertex 0.0749927 0.00972931 0.01
    endloop
  endfacet
  facet normal 0.994138 -0.108114 0
    outer loop
      vertex 0.0749927 0.00972931 0.02
      vertex 0.0749341 0.00919109 0.02
      vertex 0.0749927 0.00972931 0.01
    endloop
  endfacet
  facet normal 0.994138 -0.108114 0
    outer loop
      vertex 0.0749927 0.00972931 0.01
      vertex 0.0749341 0.00919109 0.02
      vertex 0.0749341 0.00919109 0.01
    endloop
  endfacet
  facet normal 0.976619 -0.214975 0
    outer loop
      vertex 0.0749341 0.00919109 0.02
      vertex 0.0748177 0.00866236 0.02
      vertex 0.0749341 0.00919109 0.01
    endloop
  endfacet
  facet normal 0.976619 -0.214975 0
    outer loop
      vertex 0.0749341 0.00919109 0.01
      vertex 0.0748177 0.00866236 0.02
      vertex 0.0748177 0.00866236 0.01
    endloop
  endfacet
  facet normal 0.947656 -0.319293 0
    outer loop
      vertex 0.0748177 0.00866236 0.02
      vertex 0.0746449 0.00814931 0.02
      vertex 0.0748177 0.00866236 0.01
    endloop
  endfacet
  facet normal 0.947656 -0.319293 0
    outer loop
      vertex 0.0748177 0.00866236 0.01
      vertex 0.0746449 0.00814931 0.02
      vertex 0.0746449 0.00814931 0.01
    endloop
  endfacet
  facet normal 0.907574 -0.419891 0
    outer loop
      vertex 0.0746449 0.00814931 0.02
      vertex 0.0744176 0.00765796 0.02
      vertex 0.0746449 0.00814931 0.01
    endloop
  endfacet
  facet normal 0.907574 -0.419891 0
    outer loop
      vertex 0.0746449 0.00814931 0.01
      vertex 0.0744176 0.00765796 0.02
      vertex 0.0744176 0.00765796 0.01
    endloop
  endfacet
  facet normal 0.856858 -0.515552 0
    outer loop
      vertex 0.0744176 0.00765796 0.02
      vertex 0.0741384 0.00719406 0.02
      vertex 0.0744176 0.00765796 0.01
    endloop
  endfacet
  facet normal 0.856858 -0.515552 0
    outer loop
      vertex 0.0744176 0.00765796 0.01
      vertex 0.0741384 0.00719406 0.02
      vertex 0.0741384 0.00719406 0.01
    endloop
  endfacet
  facet normal 0.796089 -0.60518 0
    outer loop
      vertex 0.0741384 0.00719406 0.02
      vertex 0.0738108 0.00676307 0.02
      vertex 0.0741384 0.00719406 0.01
    endloop
  endfacet
  facet normal 0.796089 -0.60518 0
    outer loop
      vertex 0.0741384 0.00719406 0.01
      vertex 0.0738108 0.00676307 0.02
      vertex 0.0738108 0.00676307 0.01
    endloop
  endfacet
  facet normal 0.725996 -0.687699 0
    outer loop
      vertex 0.0738108 0.00676307 0.02
      vertex 0.0734385 0.00637002 0.02
      vertex 0.0738108 0.00676307 0.01
    endloop
  endfacet
  facet normal 0.725996 -0.687699 0
    outer loop
      vertex 0.0738108 0.00676307 0.01
      vertex 0.0734385 0.00637002 0.02
      vertex 0.0734385 0.00637002 0.01
    endloop
  endfacet
  facet normal 0.647391 -0.762158 0
    outer loop
      vertex 0.0734385 0.00637002 0.02
      vertex 0.0730259 0.00601953 0.02
      vertex 0.0734385 0.00637002 0.01
    endloop
  endfacet
  facet normal 0.647391 -0.762158 0
    outer loop
      vertex 0.0734385 0.00637002 0.01
      vertex 0.0730259 0.00601953 0.02
      vertex 0.0730259 0.00601953 0.01
    endloop
  endfacet
  facet normal 0.561182 -0.827693 0
    outer loop
      vertex 0.0730259 0.00601953 0.02
      vertex 0.0725778 0.00571571 0.02
      vertex 0.0730259 0.00601953 0.01
    endloop
  endfacet
  facet normal 0.561182 -0.827693 0
    outer loop
      vertex 0.0730259 0.00601953 0.01
      vertex 0.0725778 0.00571571 0.02
      vertex 0.0725778 0.00571571 0.01
    endloop
  endfacet
  facet normal 0.468411 -0.88351 0
    outer loop
      vertex 0.0725778 0.00571571 0.02
      vertex 0.0720994 0.00546212 0.02
      vertex 0.0725778 0.00571571 0.01
    endloop
  endfacet
  facet normal 0.468411 -0.88351 0
    outer loop
      vertex 0.0725778 0.00571571 0.01
      vertex 0.0720994 0.00546212 0.02
      vertex 0.0720994 0.00546212 0.01
    endloop
  endfacet
  facet normal 0.370139 -0.928976 0
    outer loop
      vertex 0.0720994 0.00546212 0.02
      vertex 0.0715965 0.00526173 0.02
      vertex 0.0720994 0.00546212 0.01
    endloop
  endfacet
  facet normal 0.370139 -0.928976 0
    outer loop
      vertex 0.0720994 0.00546212 0.01
      vertex 0.0715965 0.00526173 0.02
      vertex 0.0715965 0.00526173 0.01
    endloop
  endfacet
  facet normal 0.267526 -0.963551 0
    outer loop
      vertex 0.0715965 0.00526173 0.02
      vertex 0.0710749 0.0051169 0.02
      vertex 0.0715965 0.00526173 0.01
    endloop
  endfacet
  facet normal 0.267526 -0.963551 0
    outer loop
      vertex 0.0715965 0.00526173 0.01
      vertex 0.0710749 0.0051169 0.02
      vertex 0.0710749 0.0051169 0.01
    endloop
  endfacet
  facet normal 0.161782 -0.986827 0
    outer loop
      vertex 0.0710749 0.0051169 0.02
      vertex 0.0705406 0.00502931 0.02
      vertex 0.0710749 0.0051169 0.01
    endloop
  endfacet
  facet normal 0.161782 -0.986827 0
    outer loop
      vertex 0.0710749 0.0051169 0.01
      vertex 0.0705406 0.00502931 0.02
      vertex 0.0705406 0.00502931 0.01
    endloop
  endfacet
  facet normal 0.0541391 -0.998533 0
    outer loop
      vertex 0.0705406 0.00502931 0.02
      vertex 0.07 0.005 0.02
      vertex 0.0705406 0.00502931 0.01
    endloop
  endfacet
  facet normal 0.0541391 -0.998533 0
    outer loop
      vertex 0.0705406 0.00502931 0.01
      vertex 0.07 0.005 0.02
      vertex 0.07 0.005 0.01
    endloop
  endfacet
  facet normal -0.0541391 -0.998533 0
    outer loop
      vertex 0.07 0.005 0.02
      vertex 0.0694594 0.00502931 0.02
      vertex 0.07 0.005 0.01
    endloop
  endfacet
  facet normal -0.0541391 -0.998533 0
    outer loop
      vertex 0.07 0.005 0.01
      vertex 0.0694594 0.00502931 0.02
      vertex 0.0694594 0.00502931 0.01
    endloop
  endfacet
  facet normal -0.161782 -0.986827 0
    outer loop
      vertex 0.0694594 0.00502931 0.02
      vertex 0.0689251 0.0051169 0.02
      vertex 0.0694594 0.00502931 0.01
    endloop
  endfacet
  facet normal -0.161782 -0.986827 0
    outer loop
      vertex 0.0694594 0.00502931 0.01
      vertex 0.0689251 0.0051169 0.02
      vertex 0.0689251 0.0051169 0.01
    endloop
  endfacet
  facet normal -0.267526 -0.963551 0
    outer loop
      vertex 0.0689251 0.0051169 0.02
      vertex 0.0684035 0.00526173 0.02
      vertex 0.0689251 0.0051169 0.01
    endloop
  endfacet
  facet normal -0.267526 -0.963551 0
    outer loop
      vertex 0.0689251 0.0051169 0.01
      vertex 0.0684035 0.00526173 0.02
      vertex 0.0684035 0.00526173 0.01
    endloop
  endfacet
  facet normal -0.370139 -0.928976 0
    outer loop
      vertex 0.0684035 0.00526173 0.02
      vertex 0.0679006 0.00546212 0.02
      vertex 0.0684035 0.00526173 0.01
    endloop
  endfacet
  facet normal -0.370139 -0.928976 0
    outer loop
      vertex 0.0684035 0.00526173 0.01
      vertex 0.0679006 0.00546212 0.02
      vertex 0.0679006 0.00546212 0.01
    endloop
  endfacet
  facet normal -0.468411 -0.88351 0
    outer loop
      vertex 0.0679006 0.00546212 0.02
      vertex 0.0674222 0.00571571 0.02
      vertex 0.0679006 0.00546212 0.01
    endloop
  endfacet
  facet normal -0.468411 -0.88351 0
    outer loop
      vertex 0.0679006 0.00546212 0.01
      vertex 0.0674222 0.00571571 0.02
      vertex 0.0674222 0.00571571 0.01
    endloop
  endfacet
  facet normal -0.561182 -0.827693 0
    outer loop
      vertex 0.0674222 0.00571571 0.02
      vertex 0.0669741 0.00601953 0.02
      vertex 0.0674222 0.00571571 0.01
    endloop
  endfacet
  facet normal -0.561182 -0.827693 0
    outer loop
      vertex 0.0674222 0.00571571 0.01
      vertex 0.0669741 0.00601953 0.02
      vertex 0.0669741 0.00601953 0.01
    endloop
  endfacet
  facet normal -0.647391 -0.762158 0
    outer loop
      vertex 0.0669741 0.00601953 0.02
      vertex 0.0665615 0.00637002 0.02
      vertex 0.0669741 0.00601953 0.01
    endloop
  endfacet
  facet normal -0.647391 -0.762158 0
    outer loop
      vertex 0.0669741 0.00601953 0.01
      vertex 0.0665615 0.00637002 0.02
      vertex 0.0665615 0.00637002 0.01
    endloop
  endfacet
  facet normal -0.725996 -0.687699 0
    outer loop
      vertex 0.0665615 0.00637002 0.02
      vertex 0.0661892 0.00676307 0.02
      vertex 0.0665615 0.00637002 0.01
    endloop
  endfacet
  facet normal -0.725996 -0.687699 0
    outer loop
      vertex 0.0665615 0.00637002 0.01
      vertex 0.0661892 0.00676307 0.02
      vertex 0.0661892 0.00676307 0.01
    endloop
  endfacet
  facet normal -0.796089 -0.60518 0
    outer loop
      vertex 0.0661892 0.00676307 0.02
      vertex 0.0658616 0.00719406 0.02
      vertex 0.0661892 0.00676307 0.01
    endloop
  endfacet
  facet normal -0.796089 -0.60518 0
    outer loop
      vertex 0.0661892 0.00676307 0.01
      vertex 0.0658616 0.00719406 0.02
      vertex 0.0658616 0.00719406 0.01
    endloop
  endfacet
  facet normal -0.856858 -0.515552 0
    outer loop
      vertex 0.0658616 0.00719406 0.02
      vertex 0.0655824 0.00765796 0.02
      vertex 0.0658616 0.00719406 0.01
    endloop
  endfacet
  facet normal -0.856858 -0.515552 0
    outer loop
      vertex 0.0658616 0.00719406 0.01
      vertex 0.0655824 0.00765796 0.02
      vertex 0.0655824 0.00765796 0.01
    endloop
  endfacet
  facet normal -0.907574 -0.419891 0
    outer loop
      vertex 0.0655824 0.00765796 0.02
      vertex 0.0653551 0.00814931 0.02
      vertex 0.0655824 0.00765796 0.01
    endloop
  endfacet
  facet normal -0.907574 -0.419891 0
    outer loop
      vertex 0.0655824 0.00765796 0.01
      vertex 0.0653551 0.00814931 0.02
      vertex 0.0653551 0.00814931 0.01
    endloop
  endfacet
  facet normal -0.947656 -0.319293 0
    outer loop
      vertex 0.0653551 0.00814931 0.02
      vertex 0.0651823 0.00866236 0.02
      vertex 0.0653551 0.00814931 0.01
    endloop
  endfacet
  facet normal -0.947656 -0.319293 0
    outer loop
      vertex 0.0653551 0.00814931 0.01
      vertex 0.0651823 0.00866236 0.02
      vertex 0.0651823 0.00866236 0.01
    endloop
  endfacet
  facet normal -0.976619 -0.214975 0
    outer loop
      vertex 0.0651823 0.00866236 0.02
      vertex 0.0650659 0.00919109 0.02
      vertex 0.0651823 0.00866236 0.01
    endloop
  endfacet
  facet normal -0.976619 -0.214975 0
    outer loop
      vertex 0.0651823 0.00866236 0.01
      vertex 0.0650659 0.00919109 0.02
      vertex 0.0650659 0.00919109 0.01
    endloop
  endfacet
  facet normal -0.994138 -0.108114 0
    outer loop
      vertex 0.0650659 0.00919109 0.02
      vertex 0.0650073 0.00972931 0.02
      vertex 0.0650659 0.00919109 0.01
    endloop
  endfacet
  facet normal -0.994138 -0.108114 0
    outer loop
      vertex 0.0650659 0.00919109 0.01
      vertex 0.0650073 0.00972931 0.02
      vertex 0.0650073 0.00972931 0.01
    endloop
  endfacet
  facet normal -0.999633 0.0271011 0
    outer loop
      vertex 0.0650073 0.0102707 0
      vertex 0.065 0.01 0
      vertex 0.065 0.01 0.01
    endloop
  endfacet
  facet normal -0.999633 -0.0271011 0
    outer loop
      vertex 0.0650073 0.00972931 0.01
      vertex 0.0650073 0.00972931 0.02
      vertex 0.065 0.01 0.01
    endloop
  endfacet
  facet normal -1 0 0.000733882
    outer loop
      vertex 0.0650073 0.00972931 0.02
      vertex 0.0650073 0.0102707 0.02
      vertex 0.065 0.01 0.01
    endloop
  endfacet
  facet normal -0.999633 0.0271011 0
    outer loop
      vertex 0.065 0.01 0.01
      vertex 0.0650073 0.0102707 0.02
      vertex 0.0650073 0.0102707 0
    endloop
  endfacet
  facet normal -0.994139 0.108114 0
    outer loop
      vertex 0.0650073 0.0102707 0.02
      vertex 0.0650659 0.0108089 0.02
      vertex 0.0650073 0.0102707 0
    endloop
  endfacet
  facet normal -0.994139 0.108114 0
    outer loop
      vertex 0.0650073 0.0102707 0
      vertex 0.0650659 0.0108089 0.02
      vertex 0.0650659 0.0108089 0
    endloop
  endfacet
  facet normal -0.976619 0.214976 0
    outer loop
      vertex 0.0650659 0.0108089 0.02
      vertex 0.0651823 0.0113376 0.02
      vertex 0.0650659 0.0108089 0
    endloop
  endfacet
  facet normal -0.976619 0.214976 0
    outer loop
      vertex 0.0650659 0.0108089 0
      vertex 0.0651823 0.0113376 0.02
      vertex 0.0651823 0.0113376 0
    endloop
  endfacet
  facet normal -0.947656 0.319293 0
    outer loop
      vertex 0.0651823 0.0113376 0.02
      vertex 0.0653551 0.0118507 0.02
      vertex 0.0651823 0.0113376 0
    endloop
  endfacet
  facet normal -0.947656 0.319293 0
    outer loop
      vertex 0.0651823 0.0113376 0
      vertex 0.0653551 0.0118507 0.02
      vertex 0.0653551 0.0118507 0
    endloop
  endfacet
  facet normal -0.907575 0.419891 0
    outer loop
      vertex 0.0653551 0.0118507 0.02
      vertex 0.0655824 0.012342 0.02
      vertex 0.0653551 0.0118507 0
    endloop
  endfacet
  facet normal -0.907575 0.419891 0
    outer loop
      vertex 0.0653551 0.0118507 0
      vertex 0.0655824 0.012342 0.02
      vertex 0.0655824 0.012342 0
    endloop
  endfacet
  facet normal -0.856858 0.515552 0
    outer loop
      vertex 0.0655824 0.012342 0.02
      vertex 0.0658616 0.0128059 0.02
      vertex 0.0655824 0.012342 0
    endloop
  endfacet
  facet normal -0.856858 0.515552 0
    outer loop
      vertex 0.0655824 0.012342 0
      vertex 0.0658616 0.0128059 0.02
      vertex 0.0658616 0.0128059 0
    endloop
  endfacet
  facet normal -0.796089 0.605179 0
    outer loop
      vertex 0.0658616 0.0128059 0.02
      vertex 0.0661892 0.0132369 0.02
      vertex 0.0658616 0.0128059 0
    endloop
  endfacet
  facet normal -0.796089 0.605179 0
    outer loop
      vertex 0.0658616 0.0128059 0
      vertex 0.0661892 0.0132369 0.02
      vertex 0.0661892 0.0132369 0
    endloop
  endfacet
  facet normal -0.725996 0.687699 0
    outer loop
      vertex 0.0661892 0.0132369 0.02
      vertex 0.0665615 0.01363 0.02
      vertex 0.0661892 0.0132369 0
    endloop
  endfacet
  facet normal -0.725996 0.687699 0
    outer loop
      vertex 0.0661892 0.0132369 0
      vertex 0.0665615 0.01363 0.02
      vertex 0.0665615 0.01363 0
    endloop
  endfacet
  facet normal -0.647391 0.762158 0
    outer loop
      vertex 0.0665615 0.01363 0.02
      vertex 0.0669741 0.0139805 0.02
      vertex 0.0665615 0.01363 0
    endloop
  endfacet
  facet normal -0.647391 0.762158 0
    outer loop
      vertex 0.0665615 0.01363 0
      vertex 0.0669741 0.0139805 0.02
      vertex 0.0669741 0.0139805 0
    endloop
  endfacet
  facet normal -0.561182 0.827692 0
    outer loop
      vertex 0.0669741 0.0139805 0.02
      vertex 0.0674222 0.0142843 0.02
      vertex 0.0669741 0.0139805 0
    endloop
  endfacet
  facet normal -0.561182 0.827692 0
    outer loop
      vertex 0.0669741 0.0139805 0
      vertex 0.0674222 0.0142843 0.02
      vertex 0.0674222 0.0142843 0
    endloop
  endfacet
  facet normal -0.468412 0.88351 0
    outer loop
      vertex 0.0674222 0.0142843 0.02
      vertex 0.0679006 0.0145379 0.02
      vertex 0.0674222 0.0142843 0
    endloop
  endfacet
  facet normal -0.468412 0.88351 0
    outer loop
      vertex 0.0674222 0.0142843 0
      vertex 0.0679006 0.0145379 0.02
      vertex 0.0679006 0.0145379 0
    endloop
  endfacet
  facet normal -0.370138 0.928977 0
    outer loop
      vertex 0.0679006 0.0145379 0.02
      vertex 0.0684035 0.0147383 0.02
      vertex 0.0679006 0.0145379 0
    endloop
  endfacet
  facet normal -0.370138 0.928977 0
    outer loop
      vertex 0.0679006 0.0145379 0
      vertex 0.0684035 0.0147383 0.02
      vertex 0.0684035 0.0147383 0
    endloop
  endfacet
  facet normal -0.267527 0.96355 0
    outer loop
      vertex 0.0684035 0.0147383 0.02
      vertex 0.0689251 0.0148831 0.02
      vertex 0.0684035 0.0147383 0
    endloop
  endfacet
  facet normal -0.267527 0.96355 0
    outer loop
      vertex 0.0684035 0.0147383 0
      vertex 0.0689251 0.0148831 0.02
      vertex 0.0689251 0.0148831 0
    endloop
  endfacet
  facet normal -0.161782 0.986827 0
    outer loop
      vertex 0.0689251 0.0148831 0.02
      vertex 0.0694594 0.0149707 0.02
      vertex 0.0689251 0.0148831 0
    endloop
  endfacet
  facet normal -0.161782 0.986827 0
    outer loop
      vertex 0.0689251 0.0148831 0
      vertex 0.0694594 0.0149707 0.02
      vertex 0.0694594 0.0149707 0
    endloop
  endfacet
  facet normal -0.0541382 0.998533 0
    outer loop
      vertex 0.0694594 0.0149707 0.02
      vertex 0.07 0.015 0.02
      vertex 0.0694594 0.0149707 0
    endloop
  endfacet
  facet normal -0.0541382 0.998533 0
    outer loop
      vertex 0.0694594 0.0149707 0
      vertex 0.07 0.015 0.02
      vertex 0.07 0.015 0
    endloop
  endfacet
  facet normal 0.0541382 0.998533 0
    outer loop
      vertex 0.07 0.015 0.02
      vertex 0.0705406 0.0149707 0.02
      vertex 0.07 0.015 0
    endloop
  endfacet
  facet normal 0.0541382 0.998533 0
    outer loop
      vertex 0.07 0.015 0
      vertex 0.0705406 0.0149707 0.02
      vertex 0.0705406 0.0149707 0
    endloop
  endfacet
  facet normal 0.161782 0.986827 0
    outer loop
      vertex 0.0705406 0.0149707 0.02
      vertex 0.0710749 0.0148831 0.02
      vertex 0.0705406 0.0149707 0
    endloop
  endfacet
  facet normal 0.161782 0.986827 0
    outer loop
      vertex 0.0705406 0.0149707 0
      vertex 0.0710749 0.0148831 0.02
      vertex 0.0710749 0.0148831 0
    endloop
  endfacet
  facet normal 0.267527 0.96355 0
    outer loop
      vertex 0.0710749 0.0148831 0.02
      vertex 0.0715965 0.0147383 0.02
      vertex 0.0710749 0.0148831 0
    endloop
  endfacet
  facet normal 0.267527 0.96355 0
    outer loop
      vertex 0.0710749 0.0148831 0
      vertex 0.0715965 0.0147383 0.02
      vertex 0.0715965 0.0147383 0
    endloop
  endfacet
  facet normal 0.370138 0.928977 0
    outer loop
      vertex 0.0715965 0.0147383 0.02
      vertex 0.0720994 0.0145379 0.02
      vertex 0.0715965 0.0147383 0
    endloop
  endfacet
  facet normal 0.370138 0.928977 0
    outer loop
      vertex 0.0715965 0.0147383 0
      vertex 0.0720994 0.0145379 0.02
      vertex 0.0720994 0.0145379 0
    endloop
  endfacet
  facet normal 0.468412 0.88351 0
    outer loop
      vertex 0.0720994 0.0145379 0.02
      vertex 0.0725778 0.0142843 0.02
      vertex 0.0720994 0.0145379 0
    endloop
  endfacet
  facet normal 0.468412 0.88351 0
    outer loop
      vertex 0.0720994 0.0145379 0
      vertex 0.0725778 0.0142843 0.02
      vertex 0.0725778 0.0142843 0
    endloop
  endfacet
  facet normal 0.561182 0.827692 0
    outer loop
      vertex 0.0725778 0.0142843 0.02
      vertex 0.0730259 0.0139805 0.02
      vertex 0.0725778 0.0142843 0
    endloop
  endfacet
  facet normal 0.561182 0.827692 0
    outer loop
      vertex 0.0725778 0.0142843 0
      vertex 0.0730259 0.0139805 0.02
      vertex 0.0730259 0.0139805 0
    endloop
  endfacet
  facet normal 0.647391 0.762158 0
    outer loop
      vertex 0.0730259 0.0139805 0.02
      vertex 0.0734385 0.01363 0.02
      vertex 0.0730259 0.0139805 0
    endloop
  endfacet
  facet normal 0.647391 0.762158 0
    outer loop
      vertex 0.0730259 0.0139805 0
      vertex 0.0734385 0.01363 0.02
      vertex 0.0734385 0.01363 0
    endloop
  endfacet
  facet normal 0.725996 0.687699 0
    outer loop
      vertex 0.0734385 0.01363 0.02
      vertex 0.0738108 0.0132369 0.02
      vertex 0.0734385 0.01363 0
    endloop
  endfacet
  facet normal 0.725996 0.687699 0
    outer loop
      vertex 0.0734385 0.01363 0
      vertex 0.0738108 0.0132369 0.02
      vertex 0.0738108 0.0132369 0
    endloop
  endfacet
  facet normal 0.796089 0.605179 0
    outer loop
      vertex 0.0738108 0.0132369 0.02
      vertex 0.0741384 0.0128059 0.02
      vertex 0.0738108 0.0132369 0
    endloop
  endfacet
  facet normal 0.796089 0.605179 0
    outer loop
      vertex 0.0738108 0.0132369 0
      vertex 0.0741384 0.0128059 0.02
      vertex 0.0741384 0.0128059 0
    endloop
  endfacet
  facet normal 0.856858 0.515552 0
    outer loop
      vertex 0.0741384 0.0128059 0.02
      vertex 0.0744176 0.012342 0.02
      vertex 0.0741384 0.0128059 0
    endloop
  endfacet
  facet normal 0.856858 0.515552 0
    outer loop
      vertex 0.0741384 0.0128059 0
      vertex 0.0744176 0.012342 0.02
      vertex 0.0744176 0.012342 0
    endloop
  endfacet
  facet normal 0.907575 0.419891 0
    outer loop
      vertex 0.0744176 0.012342 0.02
      vertex 0.0746449 0.0118507 0.02
      vertex 0.0744176 0.012342 0
    endloop
  endfacet
  facet normal 0.907575 0.419891 0
    outer loop
      vertex 0.0744176 0.012342 0
      vertex 0.0746449 0.0118507 0.02
      vertex 0.0746449 0.0118507 0
    endloop
  endfacet
  facet normal 0.947656 0.319293 0
    outer loop
      vertex 0.0746449 0.0118507 0.02
      vertex 0.0748177 0.0113376 0.02
      vertex 0.0746449 0.0118507 0
    endloop
  endfacet
  facet normal 0.947656 0.319293 0
    outer loop
      vertex 0.0746449 0.0118507 0
      vertex 0.0748177 0.0113376 0.02
      vertex 0.0748177 0.0113376 0
    endloop
  endfacet
  facet normal 0.976619 0.214976 0
    outer loop
      vertex 0.0748177 0.0113376 0.02
      vertex 0.0749341 0.0108089 0.02
      vertex 0.0748177 0.0113376 0
    endloop
  endfacet
  facet normal 0.976619 0.214976 0
    outer loop
      vertex 0.0748177 0.0113376 0
      vertex 0.0749341 0.0108089 0.02
      vertex 0.0749341 0.0108089 0
    endloop
  endfacet
  facet normal 0.994139 0.108114 0
    outer loop
      vertex 0.0749341 0.0108089 0.02
      vertex 0.0749927 0.0102707 0.02
      vertex 0.0749341 0.0108089 0
    endloop
  endfacet
  facet normal 0.994139 0.108114 0
    outer loop
      vertex 0.0749341 0.0108089 0
      vertex 0.0749927 0.0102707 0.02
      vertex 0.0749927 0.0102707 0
    endloop
  endfacet
  facet normal 0.999633 0.0271011 0
    outer loop
      vertex 0.0749927 0.0102707 0.02
      vertex 0.075 0.01 0.01
      vertex 0.0749927 0.0102707 0
    endloop
  endfacet
  facet normal 0.999633 0.0271011 0
    outer loop
      vertex 0.0749927 0.0102707 0
      vertex 0.075 0.01 0.01
      vertex 0.075 0.01 0
    endloop
  endfacet
  facet normal 0 0 -1
    outer loop
      vertex 0.075 0.01 0
      vertex 0.085 0.01 0
      vertex 0.065 -0.01 0
    endloop
  endfacet
  facet normal 0 0 -1
    outer loop
      vertex 0.065 -0.01 0
      vertex 0.065 0.01 0
      vertex 0.075 0.01 0
    endloop
  endfacet
  facet normal 0 0 -1
    outer loop
      vertex 0.065 0.01 0
      vertex 0.0650073 0.0102707 0
      vertex 0.075 0.01 0
    endloop
  endfacet
  facet normal 0 0 -1
    outer loop
      vertex 0.075 0.01 0
      vertex 0.0650073 0.0102707 0
      vertex 0.0749927 0.0102707 0
    endloop
  endfacet
  facet normal 0 0 -1
    outer loop
      vertex 0.0650659 0.0108089 0
      vertex 0.0741384 0.0128059 0
      vertex 0.0650073 0.0102707 0
    endloop
  endfacet
  facet normal 0 0 -1
    outer loop
      vertex 0.0741384 0.0128059 0
      vertex 0.0744176 0.012342 0
      vertex 0.0650073 0.0102707 0
    endloop
  endfacet
  facet normal 0 0 -1
    outer loop
      vertex 0.0650073 0.0102707 0
      vertex 0.0744176 0.012342 0
      vertex 0.0746449 0.0118507 0
    endloop
  endfacet
  facet normal 0 0 -1
    outer loop
      vertex 0.0746449 0.0118507 0
      vertex 0.0748177 0.0113376 0
      vertex 0.0650073 0.0102707 0
    endloop
  endfacet
  facet normal 0 0 -1
    outer loop
      vertex 0.0748177 0.0113376 0
      vertex 0.0749341 0.0108089 0
      vertex 0.0650073 0.0102707 0
    endloop
  endfacet
  facet normal 0 0 -1
    outer loop
      vertex 0.0650073 0.0102707 0
      vertex 0.0749341 0.0108089 0
      vertex 0.0749927 0.0102707 0
    endloop
  endfacet
  facet normal 0 0 -1
    outer loop
      vertex 0.0650659 0.0108089 0
      vertex 0.0651823 0.0113376 0
      vertex 0.0741384 0.0128059 0
    endloop
  endfacet
  facet normal 0 0 -1
    outer loop
      vertex 0.0651823 0.0113376 0
      vertex 0.0653551 0.0118507 0
      vertex 0.0741384 0.0128059 0
    endloop
  endfacet
  facet normal 0 0 -1
    outer loop
      vertex 0.0741384 0.0128059 0
      vertex 0.0653551 0.0118507 0
      vertex 0.0655824 0.012342 0
    endloop
  endfacet
  facet normal 0 0 -1
    outer loop
      vertex 0.0679006 0.0145379 0
      vertex 0.0684035 0.0147383 0
      vertex 0.0725778 0.0142843 0
    endloop
  endfacet
  facet normal 0 0 -1
    outer loop
      vertex 0.0655824 0.012342 0
      vertex 0.0658616 0.0128059 0
      vertex 0.0741384 0.0128059 0
    endloop
  endfacet
  facet normal 0 0 -1
    outer loop
      vertex 0.0658616 0.0128059 0
      vertex 0.0661892 0.0132369 0
      vertex 0.0741384 0.0128059 0
    endloop
  endfacet
  facet normal 0 0 -1
    outer loop
      vertex 0.0741384 0.0128059 0
      vertex 0.0661892 0.0132369 0
      vertex 0.0665615 0.01363 0
    endloop
  endfacet
  facet normal 0 0 -1
    outer loop
      vertex 0.0679006 0.0145379 0
      vertex 0.0725778 0.0142843 0
      vertex 0.0674222 0.0142843 0
    endloop
  endfacet
  facet normal 0 0 -1
    outer loop
      vertex 0.0725778 0.0142843 0
      vertex 0.0730259 0.0139805 0
      vertex 0.0674222 0.0142843 0
    endloop
  endfacet
  facet normal 0 0 -1
    outer loop
      vertex 0.0674222 0.0142843 0
      vertex 0.0730259 0.0139805 0
      vertex 0.0734385 0.01363 0
    endloop
  endfacet
  facet normal 0 0 -1
    outer loop
      vertex 0.0665615 0.01363 0
      vertex 0.0669741 0.0139805 0
      vertex 0.0741384 0.0128059 0
    endloop
  endfacet
  facet normal 0 0 -1
    outer loop
      vertex 0.0669741 0.0139805 0
      vertex 0.0674222 0.0142843 0
      vertex 0.0741384 0.0128059 0
    endloop
  endfacet
  facet normal 0 0 -1
    outer loop
      vertex 0.0741384 0.0128059 0
      vertex 0.0674222 0.0142843 0
      vertex 0.0738108 0.0132369 0
    endloop
  endfacet
  facet normal 0 0 -1
    outer loop
      vertex 0.0674222 0.0142843 0
      vertex 0.0734385 0.01363 0
      vertex 0.0738108 0.0132369 0
    endloop
  endfacet
  facet normal 0 0 -1
    outer loop
      vertex 0.0684035 0.0147383 0
      vertex 0.0689251 0.0148831 0
      vertex 0.0725778 0.0142843 0
    endloop
  endfacet
  facet normal 0 0 -1
    outer loop
      vertex 0.0689251 0.0148831 0
      vertex 0.0694594 0.0149707 0
      vertex 0.0725778 0.0142843 0
    endloop
  endfacet
  facet normal 0 0 -1
    outer loop
      vertex 0.0725778 0.0142843 0
      vertex 0.0694594 0.0149707 0
      vertex 0.07 0.015 0
    endloop
  endfacet
  facet normal 0 0 -1
    outer loop
      vertex 0.07 0.015 0
      vertex 0.0705406 0.0149707 0
      vertex 0.0725778 0.0142843 0
    endloop
  endfacet
  facet normal 0 0 -1
    outer loop
      vertex 0.0705406 0.0149707 0
      vertex 0.0710749 0.0148831 0
      vertex 0.0725778 0.0142843 0
    endloop
  endfacet
  facet normal 0 0 -1
    outer loop
      vertex 0.0725778 0.0142843 0
      vertex 0.0710749 0.0148831 0
      vertex 0.0720994 0.0145379 0
    endloop
  endfacet
  facet normal 0 0 -1
    outer loop
      vertex 0.0710749 0.0148831 0
      vertex 0.0715965 0.0147383 0
      vertex 0.0720994 0.0145379 0
    endloop
  endfacet
  facet normal 0.707107 -0.707107 0
    outer loop
      vertex 0.085 0.01 0.01
      vertex 0.065 -0.01 0.01
      vertex 0.085 0.01 0
    endloop
  endfacet
  facet normal 0.707107 -0.707107 0
    outer loop
      vertex 0.065 -0.01 0.01
      vertex 0.065 -0.01 0
      vertex 0.085 0.01 0
    endloop
  endfacet
  facet normal -1 0 0
    outer loop
      vertex 0.065 -0.01 0.01
      vertex 0.065 0.01 0.01
      vertex 0.065 -0.01 0
    endloop
  endfacet
  facet normal -1 0 0
    outer loop
      vertex 0.065 0.01 0.01
      vertex 0.065 0.01 0
      vertex 0.065 -0.01 0
    endloop
  endfacet
  facet normal 0 1 0
    outer loop
      vertex 0.075 0.01 0.01
      vertex 0.085 0.01 0.01
      vertex 0.075 0.01 0
    endloop
  endfacet
  facet normal 0 1 0
    outer loop
      vertex 0.085 0.01 0.01
      vertex 0.085 0.01 0
      vertex 0.075 0.01 0
    endloop
  endfacet
  facet normal 0 0 -1
    outer loop
      vertex 0.05 0.02 0.06
      vertex 0.04 0.02 0.06
      vertex 0.05 0.03 0.06
    endloop
  endfacet
  facet normal 0 0 1
    outer loop
      vertex 0.05 0.03 0.065
      vertex 0.04 0.02 0.065
      vertex 0.05 0.02 0.065
    endloop
  endfacet
  facet normal 0 -1 0
    outer loop
      vertex 0.05 0.02 0.065
      vertex 0.04 0.02 0.065
      vertex 0.05 0.02 0.06
    endloop
  endfacet
  facet normal 0 -1 0
    outer loop
      vertex 0.04 0.02 0.065
      vertex 0.04 0.02 0.06
      vertex 0.05 0.02 0.06
    endloop
  endfacet
  facet normal 1 0 0
    outer loop
      vertex 0.05 0.03 0.065
      vertex 0.05 0.02 0.065
      vertex 0.05 0.03 0.06
    endloop
  endfacet
  facet normal 1 0 0
    outer loop
      vertex 0.05 0.02 0.065
      vertex 0.05 0.02 0.06
      vertex 0.05 0.03 0.06
    endloop
  endfacet
  facet normal -0.707107 0.707107 0
    outer loop
      vertex 0.04 0.02 0.065
      vertex 0.05 0.03 0.065
      vertex 0.04 0.02 0.06
    endloop
  endfacet
  facet normal -0.707107 0.707107 0
    outer loop
      vertex 0.05 0.03 0.065
      vertex 0.05 0.03 0.06
      vertex 0.04 0.02 0.06
    endloop
  endfacet
endsolid Mesh
