solid Mesh
  facet normal 0 0 1
    outer loop
      vertex 0.015 0.045 0.035
      vertex 0.015 0.035 0.035
      vertex 0.025 0.045 0.035
    endloop
  endfacet
  facet normal 0 0 1
    outer loop
      vertex 0.015 0.035 0.035
      vertex 0.025 0.035 0.035
      vertex 0.025 0.045 0.035
    endloop
  endfacet
  facet normal 0 -1 0
    outer loop
      vertex 0.025 0.035 0.035
      vertex 0.015 0.035 0.035
      vertex 0.025 0.035 0.015
    endloop
  endfacet
  facet normal 0 -1 0
    outer loop
      vertex 0.015 0.035 0.035
      vertex 0.015 0.035 0.015
      vertex 0.025 0.035 0.015
    endloop
  endfacet
  facet normal -1 0 0
    outer loop
      vertex 0.015 0.035 0.035
      vertex 0.015 0.045 0.035
      vertex 0.015 0.035 0.015
    endloop
  endfacet
  facet normal -1 0 0
    outer loop
      vertex 0.015 0.045 0.035
      vertex 0.015 0.045 0.015
      vertex 0.015 0.035 0.015
    endloop
  endfacet
  facet normal 0 1 0
    outer loop
      vertex 0.015 0.045 0.035
      vertex 0.025 0.045 0.035
      vertex 0.015 0.045 0.015
    endloop
  endfacet
  facet normal 0 1 0
    outer loop
      vertex 0.025 0.045 0.035
      vertex 0.025 0.045 0.015
      vertex 0.015 0.045 0.015
    endloop
  endfacet
  facet normal 1 0 0
    outer loop
      vertex 0.025 0.045 0.035
      vertex 0.025 0.035 0.035
      vertex 0.025 0.045 0.015
    endloop
  endfacet
  facet normal 1 0 0
    outer loop
      vertex 0.025 0.035 0.035
      vertex 0.025 0.035 0.015
      vertex 0.025 0.045 0.015
    endloop
  endfacet
  facet normal 0 0 -1
    outer loop
      vertex 0.02 0.01 0
      vertex 0.01 0.03 0
      vertex 0.03 0.03 0
    endloop
  endfacet
  facet normal 0 0 -1
    outer loop
      vertex 0.01 0.03 0
      vertex 0.01 0.05 0
      vertex 0.03 0.03 0
    endloop
  endfacet
  facet normal 0 0 -1
    outer loop
      vertex 0.03 0.03 0
      vertex 0.01 0.05 0
      vertex 0.03 0.05 0
    endloop
  endfacet
  facet normal 0 0 -1
    outer loop
      vertex 0.04 0.0473205 0
      vertex 0.03 0.03 0
      vertex 0.0381347 0.0482709 0
    endloop
  endfacet
  facet normal 0 0 -1
    outer loop
      vertex 0.03 0.03 0
      vertex 0.0361803 0.0490211 0
      vertex 0.0381347 0.0482709 0
    endloop
  endfacet
  facet normal 0 0 -1
    outer loop
      vertex 0.03 0.05 0
      vertex 0.0320906 0.0498904 0
      vertex 0.03 0.03 0
    endloop
  endfacet
  facet normal 0 0 -1
    outer loop
      vertex 0.0320906 0.0498904 0
      vertex 0.0341582 0.049563 0
      vertex 0.03 0.03 0
    endloop
  endfacet
  facet normal 0 0 -1
    outer loop
      vertex 0.03 0.03 0
      vertex 0.0341582 0.049563 0
      vertex 0.0361803 0.0490211 0
    endloop
  endfacet
  facet normal 0 0 -1
    outer loop
      vertex 0.0473205 0.04 0
      vertex 0.03 0.03 0
      vertex 0.0461803 0.0417557 0
    endloop
  endfacet
  facet normal 0 0 -1
    outer loop
      vertex 0.03 0.03 0
      vertex 0.0448629 0.0433826 0
      vertex 0.0461803 0.0417557 0
    endloop
  endfacet
  facet normal 0 0 -1
    outer loop
      vertex 0.05 0.03 0
      vertex 0.03 0.03 0
      vertex 0.0498904 0.0320906 0
    endloop
  endfacet
  facet normal 0 0 -1
    outer loop
      vertex 0.03 0.03 0
      vertex 0.049563 0.0341582 0
      vertex 0.0498904 0.0320906 0
    endloop
  endfacet
  facet normal 0 0 -1
    outer loop
      vertex 0.04 0.0473205 0
      vertex 0.0417557 0.0461803 0
      vertex 0.03 0.03 0
    endloop
  endfacet
  facet normal 0 0 -1
    outer loop
      vertex 0.0417557 0.0461803 0
      vertex 0.0433826 0.0448629 0
      vertex 0.03 0.03 0
    endloop
  endfacet
  facet normal 0 0 -1
    outer loop
      vertex 0.03 0.03 0
      vertex 0.0433826 0.0448629 0
      vertex 0.0448629 0.0433826 0
    endloop
  endfacet
  facet normal 0 0 -1
    outer loop
      vertex 0.0473205 0.04 0
      vertex 0.0482709 0.0381347 0
      vertex 0.03 0.03 0
    endloop
  endfacet
  facet normal 0 0 -1
    outer loop
      vertex 0.0482709 0.0381347 0
      vertex 0.0490211 0.0361803 0
      vertex 0.03 0.03 0
    endloop
  endfacet
  facet normal 0 0 -1
    outer loop
      vertex 0.03 0.03 0
      vertex 0.0490211 0.0361803 0
      vertex 0.049563 0.0341582 0
    endloop
  endfacet
  facet normal -0.894427 -0.447214 0
    outer loop
      vertex 0.02 0.01 0.015
      vertex 0.01 0.03 0.015
      vertex 0.02 0.01 0
    endloop
  endfacet
  facet normal -0.894427 -0.447214 0
    outer loop
      vertex 0.01 0.03 0.015
      vertex 0.01 0.03 0
      vertex 0.02 0.01 0
    endloop
  endfacet
  facet normal 0.894427 -0.447214 0
    outer loop
      vertex 0.03 0.03 0.015
      vertex 0.02 0.01 0.015
      vertex 0.03 0.03 0
    endloop
  endfacet
  facet normal 0.894427 -0.447214 0
    outer loop
      vertex 0.02 0.01 0.015
      vertex 0.02 0.01 0
      vertex 0.03 0.03 0
    endloop
  endfacet
  facet normal 0 0 1
    outer loop
      vertex 0.049563 0.0341582 0.015
      vertex 0.03 0.03 0.015
      vertex 0.0498904 0.0320906 0.015
    endloop
  endfacet
  facet normal 0 0 1
    outer loop
      vertex 0.03 0.03 0.015
      vertex 0.05 0.03 0.015
      vertex 0.0498904 0.0320906 0.015
    endloop
  endfacet
  facet normal 0 0 1
    outer loop
      vertex 0.0381347 0.0482709 0.015
      vertex 0.0361803 0.0490211 0.015
      vertex 0.03 0.03 0.015
    endloop
  endfacet
  facet normal 0 0 1
    outer loop
      vertex 0.049563 0.0341582 0.015
      vertex 0.0490211 0.0361803 0.015
      vertex 0.03 0.03 0.015
    endloop
  endfacet
  facet normal 0 0 1
    outer loop
      vertex 0.0490211 0.0361803 0.015
      vertex 0.0482709 0.0381347 0.015
      vertex 0.03 0.03 0.015
    endloop
  endfacet
  facet normal 0 0 1
    outer loop
      vertex 0.03 0.03 0.015
      vertex 0.0482709 0.0381347 0.015
      vertex 0.0473205 0.04 0.015
    endloop
  endfacet
  facet normal 0 0 1
    outer loop
      vertex 0.0473205 0.04 0.015
      vertex 0.0461803 0.0417557 0.015
      vertex 0.03 0.03 0.015
    endloop
  endfacet
  facet normal 0 0 1
    outer loop
      vertex 0.0461803 0.0417557 0.015
      vertex 0.0448629 0.0433826 0.015
      vertex 0.03 0.03 0.015
    endloop
  endfacet
  facet normal 0 0 1
    outer loop
      vertex 0.03 0.03 0.015
      vertex 0.0448629 0.0433826 0.015
      vertex 0.0433826 0.0448629 0.015
    endloop
  endfacet
  facet normal 0 0 1
    outer loop
      vertex 0.0433826 0.0448629 0.015
      vertex 0.0417557 0.0461803 0.015
      vertex 0.03 0.03 0.015
    endloop
  endfacet
  facet normal 0 0 1
    outer loop
      vertex 0.0417557 0.0461803 0.015
      vertex 0.04 0.0473205 0.015
      vertex 0.03 0.03 0.015
    endloop
  endfacet
  facet normal 0 0 1
    outer loop
      vertex 0.03 0.03 0.015
      vertex 0.04 0.0473205 0.015
      vertex 0.0381347 0.0482709 0.015
    endloop
  endfacet
  facet normal 0 0 1
    outer loop
      vertex 0.0361803 0.0490211 0.015
      vertex 0.0341582 0.049563 0.015
      vertex 0.03 0.03 0.015
    endloop
  endfacet
  facet normal 0 0 1
    outer loop
      vertex 0.0341582 0.049563 0.015
      vertex 0.0320906 0.0498904 0.015
      vertex 0.03 0.03 0.015
    endloop
  endfacet
  facet normal 0 0 1
    outer loop
      vertex 0.03 0.03 0.015
      vertex 0.0320906 0.0498904 0.015
      vertex 0.03 0.05 0.015
    endloop
  endfacet
  facet normal 0 0 1
    outer loop
      vertex 0.01 0.03 0.015
      vertex 0.02 0.01 0.015
      vertex 0.025 0.035 0.015
    endloop
  endfacet
  facet normal 0 0 1
    outer loop
      vertex 0.02 0.01 0.015
      vertex 0.03 0.03 0.015
      vertex 0.025 0.035 0.015
    endloop
  endfacet
  facet normal 0 0 1
    outer loop
      vertex 0.025 0.035 0.015
      vertex 0.03 0.03 0.015
      vertex 0.025 0.045 0.015
    endloop
  endfacet
  facet normal 0 0 1
    outer loop
      vertex 0.03 0.03 0.015
      vertex 0.03 0.05 0.015
      vertex 0.025 0.045 0.015
    endloop
  endfacet
  facet normal 0 0 1
    outer loop
      vertex 0.025 0.045 0.015
      vertex 0.03 0.05 0.015
      vertex 0.015 0.045 0.015
    endloop
  endfacet
  facet normal 0 0 1
    outer loop
      vertex 0.03 0.05 0.015
      vertex 0.01 0.05 0.015
      vertex 0.015 0.045 0.015
    endloop
  endfacet
  facet normal 0 0 1
    outer loop
      vertex 0.015 0.045 0.015
      vertex 0.01 0.05 0.015
      vertex 0.015 0.035 0.015
    endloop
  endfacet
  facet normal 0 0 1
    outer loop
      vertex 0.01 0.05 0.015
      vertex 0.01 0.03 0.015
      vertex 0.015 0.035 0.015
    endloop
  endfacet
  facet normal 0 0 1
    outer loop
      vertex 0.015 0.035 0.015
      vertex 0.01 0.03 0.015
      vertex 0.025 0.035 0.015
    endloop
  endfacet
  facet normal 0 1 0
    outer loop
      vertex 0.01 0.05 0.015
      vertex 0.03 0.05 0.015
      vertex 0.01 0.05 0
    endloop
  endfacet
  facet normal 0 1 0
    outer loop
      vertex 0.03 0.05 0.015
      vertex 0.03 0.05 0
      vertex 0.01 0.05 0
    endloop
  endfacet
  facet normal 0 -1 0
    outer loop
      vertex 0.05 0.03 0.015
      vertex 0.03 0.03 0.015
      vertex 0.05 0.03 0
    endloop
  endfacet
  facet normal 0 -1 0
    outer loop
      vertex 0.03 0.03 0.015
      vertex 0.03 0.03 0
      vertex 0.05 0.03 0
    endloop
  endfacet
  facet normal 0.998629 0.0523371 0
    outer loop
      vertex 0.05 0.03 0.015
      vertex 0.05 0.03 0
      vertex 0.0498904 0.0320906 0
    endloop
  endfacet
  facet normal 0.998629 0.0523371 0
    outer loop
      vertex 0.05 0.03 0.015
      vertex 0.0498904 0.0320906 0
      vertex 0.0498904 0.0320906 0.015
    endloop
  endfacet
  facet normal 0.987689 0.156433 0
    outer loop
      vertex 0.0498904 0.0320906 0
      vertex 0.049563 0.0341582 0
      vertex 0.0498904 0.0320906 0.015
    endloop
  endfacet
  facet normal 0.987689 0.156433 0
    outer loop
      vertex 0.0498904 0.0320906 0.015
      vertex 0.049563 0.0341582 0
      vertex 0.049563 0.0341582 0.015
    endloop
  endfacet
  facet normal 0.965925 0.25882 0
    outer loop
      vertex 0.049563 0.0341582 0
      vertex 0.0490211 0.0361803 0
      vertex 0.049563 0.0341582 0.015
    endloop
  endfacet
  facet normal 0.965925 0.25882 0
    outer loop
      vertex 0.049563 0.0341582 0.015
      vertex 0.0490211 0.0361803 0
      vertex 0.0490211 0.0361803 0.015
    endloop
  endfacet
  facet normal 0.933581 0.358367 0
    outer loop
      vertex 0.0490211 0.0361803 0
      vertex 0.0482709 0.0381347 0
      vertex 0.0490211 0.0361803 0.015
    endloop
  endfacet
  facet normal 0.933581 0.358367 0
    outer loop
      vertex 0.0490211 0.0361803 0.015
      vertex 0.0482709 0.0381347 0
      vertex 0.0482709 0.0381347 0.015
    endloop
  endfacet
  facet normal 0.891006 0.453991 0
    outer loop
      vertex 0.0482709 0.0381347 0
      vertex 0.0473205 0.04 0
      vertex 0.0482709 0.0381347 0.015
    endloop
  endfacet
  facet normal 0.891006 0.453991 0
    outer loop
      vertex 0.0482709 0.0381347 0.015
      vertex 0.0473205 0.04 0
      vertex 0.0473205 0.04 0.015
    endloop
  endfacet
  facet normal 0.838671 0.544638 0
    outer loop
      vertex 0.0473205 0.04 0
      vertex 0.0461803 0.0417557 0
      vertex 0.0473205 0.04 0.015
    endloop
  endfacet
  facet normal 0.838671 0.544638 0
    outer loop
      vertex 0.0473205 0.04 0.015
      vertex 0.0461803 0.0417557 0
      vertex 0.0461803 0.0417557 0.015
    endloop
  endfacet
  facet normal 0.777145 0.629321 0
    outer loop
      vertex 0.0461803 0.0417557 0
      vertex 0.0448629 0.0433826 0
      vertex 0.0461803 0.0417557 0.015
    endloop
  endfacet
  facet normal 0.777145 0.629321 0
    outer loop
      vertex 0.0461803 0.0417557 0.015
      vertex 0.0448629 0.0433826 0
      vertex 0.0448629 0.0433826 0.015
    endloop
  endfacet
  facet normal 0.707107 0.707107 0
    outer loop
      vertex 0.0448629 0.0433826 0
      vertex 0.0433826 0.0448629 0
      vertex 0.0448629 0.0433826 0.015
    endloop
  endfacet
  facet normal 0.707107 0.707107 0
    outer loop
      vertex 0.0448629 0.0433826 0.015
      vertex 0.0433826 0.0448629 0
      vertex 0.0433826 0.0448629 0.015
    endloop
  endfacet
  facet normal 0.629321 0.777145 0
    outer loop
      vertex 0.0433826 0.0448629 0
      vertex 0.0417557 0.0461803 0
      vertex 0.0433826 0.0448629 0.015
    endloop
  endfacet
  facet normal 0.629321 0.777145 0
    outer loop
      vertex 0.0433826 0.0448629 0.015
      vertex 0.0417557 0.0461803 0
      vertex 0.0417557 0.0461803 0.015
    endloop
  endfacet
  facet normal 0.544638 0.838671 0
    outer loop
      vertex 0.0417557 0.0461803 0
      vertex 0.04 0.0473205 0
      vertex 0.0417557 0.0461803 0.015
    endloop
  endfacet
  facet normal 0.544638 0.838671 0
    outer loop
      vertex 0.0417557 0.0461803 0.015
      vertex 0.04 0.0473205 0
      vertex 0.04 0.0473205 0.015
    endloop
  endfacet
  facet normal 0.453991 0.891006 0
    outer loop
      vertex 0.04 0.0473205 0
      vertex 0.0381347 0.0482709 0
      vertex 0.04 0.0473205 0.015
    endloop
  endfacet
  facet normal 0.453991 0.891006 0
    outer loop
      vertex 0.04 0.0473205 0.015
      vertex 0.0381347 0.0482709 0
      vertex 0.0381347 0.0482709 0.015
    endloop
  endfacet
  facet normal 0.358367 0.933581 0
    outer loop
      vertex 0.0381347 0.0482709 0
      vertex 0.0361803 0.0490211 0
      vertex 0.0381347 0.0482709 0.015
    endloop
  endfacet
  facet normal 0.358367 0.933581 0
    outer loop
      vertex 0.0381347 0.0482709 0.015
      vertex 0.0361803 0.0490211 0
      vertex 0.0361803 0.0490211 0.015
    endloop
  endfacet
  facet normal 0.25882 0.965925 0
    outer loop
      vertex 0.0361803 0.0490211 0
      vertex 0.0341582 0.049563 0
      vertex 0.0361803 0.0490211 0.015
    endloop
  endfacet
  facet normal 0.25882 0.965925 0
    outer loop
      vertex 0.0361803 0.0490211 0.015
      vertex 0.0341582 0.049563 0
      vertex 0.0341582 0.049563 0.015
    endloop
  endfacet
  facet normal 0.156433 0.987689 0
    outer loop
      vertex 0.0341582 0.049563 0
      vertex 0.0320906 0.0498904 0
      vertex 0.0341582 0.049563 0.015
    endloop
  endfacet
  facet normal 0.156433 0.987689 0
    outer loop
      vertex 0.0341582 0.049563 0.015
      vertex 0.0320906 0.0498904 0
      vertex 0.0320906 0.0498904 0.015
    endloop
  endfacet
  facet normal 0.0523371 0.998629 0
    outer loop
      vertex 0.0320906 0.0498904 0
      vertex 0.03 0.05 0
      vertex 0.0320906 0.0498904 0.015
    endloop
  endfacet
  facet normal 0.0523371 0.998629 0
    outer loop
      vertex 0.0320906 0.0498904 0.015
      vertex 0.03 0.05 0
      vertex 0.03 0.05 0.015
    endloop
  endfacet
  facet normal -1 0 0
    outer loop
      vertex 0.01 0.03 0.015
      vertex 0.01 0.05 0.015
      vertex 0.01 0.03 0
    endloop
  endfacet
  facet normal -1 0 0
    outer loop
      vertex 0.01 0.05 0.015
      vertex 0.01 0.05 0
      vertex 0.01 0.03 0
    endloop
  endfacet
  facet normal -0.5 3.56277e-7 -0.866026
    outer loop
      vertex 0.0583253 0.0126795 0.0477211
      vertex 0.058338 0.0129498 0.0477138
      vertex 0.0604904 0.0126795 0.0464711
    endloop
  endfacet
  facet normal -0.5 3.72901e-6 -0.866025
    outer loop
      vertex 0.0584387 0.0118812 0.0476557
      vertex 0.0583759 0.0121421 0.0476919
      vertex 0.0604904 0.0126795 0.0464711
    endloop
  endfacet
  facet normal -0.5 4.63521e-8 -0.866026
    outer loop
      vertex 0.0583759 0.0121421 0.0476919
      vertex 0.058338 0.0124092 0.0477138
      vertex 0.0604904 0.0126795 0.0464711
    endloop
  endfacet
  facet normal -0.5 -3.56277e-7 -0.866026
    outer loop
      vertex 0.0604904 0.0126795 0.0464711
      vertex 0.058338 0.0124092 0.0477138
      vertex 0.0583253 0.0126795 0.0477211
    endloop
  endfacet
  facet normal -0.499999 -9.09034e-7 -0.866026
    outer loop
      vertex 0.0587668 0.0111666 0.0474663
      vertex 0.0586352 0.0113906 0.0475422
      vertex 0.0604904 0.0126795 0.0464711
    endloop
  endfacet
  facet normal -0.5 5.46204e-7 -0.866026
    outer loop
      vertex 0.0586352 0.0113906 0.0475422
      vertex 0.0585254 0.0116298 0.0476056
      vertex 0.0604904 0.0126795 0.0464711
    endloop
  endfacet
  facet normal -0.499999 -2.15046e-6 -0.866026
    outer loop
      vertex 0.0604904 0.0126795 0.0464711
      vertex 0.0585254 0.0116298 0.0476056
      vertex 0.0584387 0.0118812 0.0476557
    endloop
  endfacet
  facet normal -0.499995 -3.08094e-6 -0.866028
    outer loop
      vertex 0.0592754 0.0106103 0.0471726
      vertex 0.0590887 0.0107741 0.0472804
      vertex 0.0604904 0.0126795 0.0464711
    endloop
  endfacet
  facet normal -0.500001 2.18638e-6 -0.866025
    outer loop
      vertex 0.0590887 0.0107741 0.0472804
      vertex 0.0589186 0.0109602 0.0473786
      vertex 0.0604904 0.0126795 0.0464711
    endloop
  endfacet
  facet normal -0.500002 3.42963e-6 -0.866024
    outer loop
      vertex 0.0604904 0.0126795 0.0464711
      vertex 0.0589186 0.0109602 0.0473786
      vertex 0.0587668 0.0111666 0.0474663
    endloop
  endfacet
  facet normal -0.499997 -2.00955e-7 -0.866027
    outer loop
      vertex 0.0599112 0.0102706 0.0468056
      vertex 0.059689 0.0103571 0.0469338
      vertex 0.0604904 0.0126795 0.0464711
    endloop
  endfacet
  facet normal -0.499998 9.64623e-8 -0.866027
    outer loop
      vertex 0.059689 0.0103571 0.0469338
      vertex 0.0594762 0.0104707 0.0470567
      vertex 0.0604904 0.0126795 0.0464711
    endloop
  endfacet
  facet normal -0.500006 5.06994e-6 -0.866022
    outer loop
      vertex 0.0604904 0.0126795 0.0464711
      vertex 0.0594762 0.0104707 0.0470567
      vertex 0.0592754 0.0106103 0.0471726
    endloop
  endfacet
  facet normal -0.500005 0 -0.866022
    outer loop
      vertex 0.0606076 0.0101832 0.0464035
      vertex 0.0603732 0.0101832 0.0465388
      vertex 0.0604904 0.0126795 0.0464711
    endloop
  endfacet
  facet normal -0.5 -3.43872e-7 -0.866026
    outer loop
      vertex 0.0603732 0.0101832 0.0465388
      vertex 0.0601401 0.0102124 0.0466734
      vertex 0.0604904 0.0126795 0.0464711
    endloop
  endfacet
  facet normal -0.499992 -1.80648e-6 -0.86603
    outer loop
      vertex 0.0604904 0.0126795 0.0464711
      vertex 0.0601401 0.0102124 0.0466734
      vertex 0.0599112 0.0102706 0.0468056
    endloop
  endfacet
  facet normal -0.499997 1.42568e-6 -0.866027
    outer loop
      vertex 0.0612918 0.0103571 0.0460085
      vertex 0.0610696 0.0102706 0.0461367
      vertex 0.0604904 0.0126795 0.0464711
    endloop
  endfacet
  facet normal -0.499992 3.06865e-6 -0.86603
    outer loop
      vertex 0.0610696 0.0102706 0.0461367
      vertex 0.0608406 0.0102124 0.0462689
      vertex 0.0604904 0.0126795 0.0464711
    endloop
  endfacet
  facet normal -0.50001 -3.02303e-7 -0.86602
    outer loop
      vertex 0.0604904 0.0126795 0.0464711
      vertex 0.0608406 0.0102124 0.0462689
      vertex 0.0606076 0.0101832 0.0464035
    endloop
  endfacet
  facet normal -0.499996 4.10979e-6 -0.866028
    outer loop
      vertex 0.061892 0.0107741 0.0456619
      vertex 0.0617054 0.0106103 0.0457697
      vertex 0.0604904 0.0126795 0.0464711
    endloop
  endfacet
  facet normal -0.500006 -3.96257e-6 -0.866022
    outer loop
      vertex 0.0617054 0.0106103 0.0457697
      vertex 0.0615045 0.0104707 0.0458856
      vertex 0.0604904 0.0126795 0.0464711
    endloop
  endfacet
  facet normal -0.499998 1.07647e-6 -0.866027
    outer loop
      vertex 0.0604904 0.0126795 0.0464711
      vertex 0.0615045 0.0104707 0.0458856
      vertex 0.0612918 0.0103571 0.0460085
    endloop
  endfacet
  facet normal -0.5 1.6343e-6 -0.866026
    outer loop
      vertex 0.0623455 0.0113906 0.0454001
      vertex 0.062214 0.0111666 0.045476
      vertex 0.0604904 0.0126795 0.0464711
    endloop
  endfacet
  facet normal -0.500003 -2.59297e-6 -0.866024
    outer loop
      vertex 0.062214 0.0111666 0.045476
      vertex 0.0620622 0.0109602 0.0455636
      vertex 0.0604904 0.0126795 0.0464711
    endloop
  endfacet
  facet normal -0.500001 -1.24812e-6 -0.866025
    outer loop
      vertex 0.0604904 0.0126795 0.0464711
      vertex 0.0620622 0.0109602 0.0455636
      vertex 0.061892 0.0107741 0.0456619
    endloop
  endfacet
  facet normal -0.499999 3.14708e-6 -0.866026
    outer loop
      vertex 0.0626048 0.0121421 0.0452504
      vertex 0.0625421 0.0118812 0.0452866
      vertex 0.0604904 0.0126795 0.0464711
    endloop
  endfacet
  facet normal -0.500001 -3.90156e-6 -0.866025
    outer loop
      vertex 0.0625421 0.0118812 0.0452866
      vertex 0.0624553 0.0116298 0.0453367
      vertex 0.0604904 0.0126795 0.0464711
    endloop
  endfacet
  facet normal -0.499998 5.9638e-6 -0.866027
    outer loop
      vertex 0.0604904 0.0126795 0.0464711
      vertex 0.0624553 0.0116298 0.0453367
      vertex 0.0623455 0.0113906 0.0454001
    endloop
  endfacet
  facet normal -0.500001 6.42446e-6 -0.866025
    outer loop
      vertex 0.0626428 0.0129498 0.0452285
      vertex 0.0626554 0.0126795 0.0452211
      vertex 0.0604904 0.0126795 0.0464711
    endloop
  endfacet
  facet normal -0.500001 -6.42446e-6 -0.866025
    outer loop
      vertex 0.0626554 0.0126795 0.0452211
      vertex 0.0626428 0.0124092 0.0452285
      vertex 0.0604904 0.0126795 0.0464711
    endloop
  endfacet
  facet normal -0.500001 -6.68798e-6 -0.866025
    outer loop
      vertex 0.0604904 0.0126795 0.0464711
      vertex 0.0626428 0.0124092 0.0452285
      vertex 0.0626048 0.0121421 0.0452504
    endloop
  endfacet
  facet normal -0.500001 3.90155e-6 -0.866025
    outer loop
      vertex 0.0624553 0.0137292 0.0453367
      vertex 0.0625421 0.0134777 0.0452866
      vertex 0.0604904 0.0126795 0.0464711
    endloop
  endfacet
  facet normal -0.499999 -3.14709e-6 -0.866026
    outer loop
      vertex 0.0625421 0.0134777 0.0452866
      vertex 0.0626048 0.0132169 0.0452504
      vertex 0.0604904 0.0126795 0.0464711
    endloop
  endfacet
  facet normal -0.500001 6.68798e-6 -0.866025
    outer loop
      vertex 0.0604904 0.0126795 0.0464711
      vertex 0.0626048 0.0132169 0.0452504
      vertex 0.0626428 0.0129498 0.0452285
    endloop
  endfacet
  facet normal -0.500003 2.59297e-6 -0.866024
    outer loop
      vertex 0.0620622 0.0143987 0.0455636
      vertex 0.062214 0.0141924 0.045476
      vertex 0.0604904 0.0126795 0.0464711
    endloop
  endfacet
  facet normal -0.5 -1.6343e-6 -0.866026
    outer loop
      vertex 0.062214 0.0141924 0.045476
      vertex 0.0623455 0.0139684 0.0454001
      vertex 0.0604904 0.0126795 0.0464711
    endloop
  endfacet
  facet normal -0.499998 -5.96382e-6 -0.866027
    outer loop
      vertex 0.0604904 0.0126795 0.0464711
      vertex 0.0623455 0.0139684 0.0454001
      vertex 0.0624553 0.0137292 0.0453367
    endloop
  endfacet
  facet normal -0.500006 3.96257e-6 -0.866022
    outer loop
      vertex 0.0615045 0.0148883 0.0458856
      vertex 0.0617054 0.0147487 0.0457697
      vertex 0.0604904 0.0126795 0.0464711
    endloop
  endfacet
  facet normal -0.499996 -4.10979e-6 -0.866028
    outer loop
      vertex 0.0617054 0.0147487 0.0457697
      vertex 0.061892 0.0145849 0.0456619
      vertex 0.0604904 0.0126795 0.0464711
    endloop
  endfacet
  facet normal -0.500001 1.24812e-6 -0.866025
    outer loop
      vertex 0.0604904 0.0126795 0.0464711
      vertex 0.061892 0.0145849 0.0456619
      vertex 0.0620622 0.0143987 0.0455636
    endloop
  endfacet
  facet normal -0.499992 -3.06865e-6 -0.86603
    outer loop
      vertex 0.0608406 0.0151466 0.0462689
      vertex 0.0610696 0.0150884 0.0461367
      vertex 0.0604904 0.0126795 0.0464711
    endloop
  endfacet
  facet normal -0.499997 -1.42568e-6 -0.866027
    outer loop
      vertex 0.0610696 0.0150884 0.0461367
      vertex 0.0612918 0.0150019 0.0460085
      vertex 0.0604904 0.0126795 0.0464711
    endloop
  endfacet
  facet normal -0.499998 -1.07647e-6 -0.866027
    outer loop
      vertex 0.0604904 0.0126795 0.0464711
      vertex 0.0612918 0.0150019 0.0460085
      vertex 0.0615045 0.0148883 0.0458856
    endloop
  endfacet
  facet normal -0.5 3.43872e-7 -0.866026
    outer loop
      vertex 0.0601401 0.0151466 0.0466734
      vertex 0.0603732 0.0151758 0.0465388
      vertex 0.0604904 0.0126795 0.0464711
    endloop
  endfacet
  facet normal -0.500005 0 -0.866022
    outer loop
      vertex 0.0603732 0.0151758 0.0465388
      vertex 0.0606076 0.0151758 0.0464035
      vertex 0.0604904 0.0126795 0.0464711
    endloop
  endfacet
  facet normal -0.50001 3.02303e-7 -0.86602
    outer loop
      vertex 0.0604904 0.0126795 0.0464711
      vertex 0.0606076 0.0151758 0.0464035
      vertex 0.0608406 0.0151466 0.0462689
    endloop
  endfacet
  facet normal -0.499998 -9.64622e-8 -0.866027
    outer loop
      vertex 0.0594762 0.0148883 0.0470567
      vertex 0.059689 0.0150019 0.0469338
      vertex 0.0604904 0.0126795 0.0464711
    endloop
  endfacet
  facet normal -0.499997 2.00955e-7 -0.866027
    outer loop
      vertex 0.059689 0.0150019 0.0469338
      vertex 0.0599112 0.0150884 0.0468056
      vertex 0.0604904 0.0126795 0.0464711
    endloop
  endfacet
  facet normal -0.499992 1.80648e-6 -0.86603
    outer loop
      vertex 0.0604904 0.0126795 0.0464711
      vertex 0.0599112 0.0150884 0.0468056
      vertex 0.0601401 0.0151466 0.0466734
    endloop
  endfacet
  facet normal -0.500001 -2.18638e-6 -0.866025
    outer loop
      vertex 0.0589186 0.0143987 0.0473786
      vertex 0.0590887 0.0145849 0.0472804
      vertex 0.0604904 0.0126795 0.0464711
    endloop
  endfacet
  facet normal -0.499995 3.08094e-6 -0.866028
    outer loop
      vertex 0.0590887 0.0145849 0.0472804
      vertex 0.0592754 0.0147487 0.0471726
      vertex 0.0604904 0.0126795 0.0464711
    endloop
  endfacet
  facet normal -0.500006 -5.06995e-6 -0.866022
    outer loop
      vertex 0.0604904 0.0126795 0.0464711
      vertex 0.0592754 0.0147487 0.0471726
      vertex 0.0594762 0.0148883 0.0470567
    endloop
  endfacet
  facet normal -0.5 -5.46206e-7 -0.866026
    outer loop
      vertex 0.0585254 0.0137292 0.0476056
      vertex 0.0586352 0.0139684 0.0475422
      vertex 0.0604904 0.0126795 0.0464711
    endloop
  endfacet
  facet normal -0.499999 9.09031e-7 -0.866026
    outer loop
      vertex 0.0586352 0.0139684 0.0475422
      vertex 0.0587668 0.0141924 0.0474663
      vertex 0.0604904 0.0126795 0.0464711
    endloop
  endfacet
  facet normal -0.500002 -3.42963e-6 -0.866024
    outer loop
      vertex 0.0604904 0.0126795 0.0464711
      vertex 0.0587668 0.0141924 0.0474663
      vertex 0.0589186 0.0143987 0.0473786
    endloop
  endfacet
  facet normal -0.5 -4.63521e-8 -0.866026
    outer loop
      vertex 0.058338 0.0129498 0.0477138
      vertex 0.0583759 0.0132169 0.0476919
      vertex 0.0604904 0.0126795 0.0464711
    endloop
  endfacet
  facet normal -0.5 -3.72903e-6 -0.866025
    outer loop
      vertex 0.0583759 0.0132169 0.0476919
      vertex 0.0584387 0.0134777 0.0476557
      vertex 0.0604904 0.0126795 0.0464711
    endloop
  endfacet
  facet normal -0.499999 2.15045e-6 -0.866026
    outer loop
      vertex 0.0604904 0.0126795 0.0464711
      vertex 0.0584387 0.0134777 0.0476557
      vertex 0.0585254 0.0137292 0.0476056
    endloop
  endfacet
  facet normal 0.864756 0.0541283 -0.499267
    outer loop
      vertex 0.0676554 0.0126795 0.0538814
      vertex 0.0626428 0.0129498 0.0452285
      vertex 0.0676428 0.0129498 0.0538887
    endloop
  endfacet
  facet normal 0.854618 0.161774 -0.493414
    outer loop
      vertex 0.0626428 0.0129498 0.0452285
      vertex 0.0626048 0.0132169 0.0452504
      vertex 0.0676428 0.0129498 0.0538887
    endloop
  endfacet
  facet normal 0.854615 0.161797 -0.493412
    outer loop
      vertex 0.0676428 0.0129498 0.0538887
      vertex 0.0626048 0.0132169 0.0452504
      vertex 0.0676048 0.0132169 0.0539106
    endloop
  endfacet
  facet normal 0.834457 0.267538 -0.481773
    outer loop
      vertex 0.0626048 0.0132169 0.0452504
      vertex 0.0625421 0.0134777 0.0452866
      vertex 0.0676048 0.0132169 0.0539106
    endloop
  endfacet
  facet normal 0.834462 0.267516 -0.481777
    outer loop
      vertex 0.0676048 0.0132169 0.0539106
      vertex 0.0625421 0.0134777 0.0452866
      vertex 0.0675421 0.0134777 0.0539468
    endloop
  endfacet
  facet normal 0.804518 0.370135 -0.464489
    outer loop
      vertex 0.0625421 0.0134777 0.0452866
      vertex 0.0624553 0.0137292 0.0453367
      vertex 0.0675421 0.0134777 0.0539468
    endloop
  endfacet
  facet normal 0.804512 0.370155 -0.464485
    outer loop
      vertex 0.0675421 0.0134777 0.0539468
      vertex 0.0624553 0.0137292 0.0453367
      vertex 0.0674553 0.0137292 0.0539969
    endloop
  endfacet
  facet normal 0.765142 0.468413 -0.441755
    outer loop
      vertex 0.0624553 0.0137292 0.0453367
      vertex 0.0623455 0.0139684 0.0454001
      vertex 0.0674553 0.0137292 0.0539969
    endloop
  endfacet
  facet normal 0.765146 0.468404 -0.441757
    outer loop
      vertex 0.0674553 0.0137292 0.0539969
      vertex 0.0623455 0.0139684 0.0454001
      vertex 0.0673455 0.0139684 0.0540603
    endloop
  endfacet
  facet normal 0.716799 0.561188 -0.413844
    outer loop
      vertex 0.0623455 0.0139684 0.0454001
      vertex 0.062214 0.0141924 0.045476
      vertex 0.0673455 0.0139684 0.0540603
    endloop
  endfacet
  facet normal 0.716804 0.561179 -0.413847
    outer loop
      vertex 0.0673455 0.0139684 0.0540603
      vertex 0.062214 0.0141924 0.045476
      vertex 0.067214 0.0141924 0.0541363
    endloop
  endfacet
  facet normal 0.660053 0.647385 -0.381082
    outer loop
      vertex 0.062214 0.0141924 0.045476
      vertex 0.0620622 0.0143987 0.0455636
      vertex 0.067214 0.0141924 0.0541363
    endloop
  endfacet
  facet normal 0.660048 0.647392 -0.381079
    outer loop
      vertex 0.067214 0.0141924 0.0541363
      vertex 0.0620622 0.0143987 0.0455636
      vertex 0.0670622 0.0143987 0.0542239
    endloop
  endfacet
  facet normal 0.595565 0.725995 -0.34385
    outer loop
      vertex 0.0620622 0.0143987 0.0455636
      vertex 0.061892 0.0145849 0.0456619
      vertex 0.0670622 0.0143987 0.0542239
    endloop
  endfacet
  facet normal 0.595565 0.725995 -0.34385
    outer loop
      vertex 0.0670622 0.0143987 0.0542239
      vertex 0.061892 0.0145849 0.0456619
      vertex 0.066892 0.0145849 0.0543222
    endloop
  endfacet
  facet normal 0.5241 0.79609 -0.302589
    outer loop
      vertex 0.061892 0.0145849 0.0456619
      vertex 0.0617054 0.0147487 0.0457697
      vertex 0.066892 0.0145849 0.0543222
    endloop
  endfacet
  facet normal 0.524093 0.796096 -0.302585
    outer loop
      vertex 0.066892 0.0145849 0.0543222
      vertex 0.0617054 0.0147487 0.0457697
      vertex 0.0667054 0.0147487 0.0544299
    endloop
  endfacet
  facet normal 0.44648 0.856859 -0.257775
    outer loop
      vertex 0.0617054 0.0147487 0.0457697
      vertex 0.0615045 0.0148883 0.0458856
      vertex 0.0667054 0.0147487 0.0544299
    endloop
  endfacet
  facet normal 0.446487 0.856854 -0.257779
    outer loop
      vertex 0.0667054 0.0147487 0.0544299
      vertex 0.0615045 0.0148883 0.0458856
      vertex 0.0665045 0.0148883 0.0545459
    endloop
  endfacet
  facet normal 0.363635 0.907575 -0.209945
    outer loop
      vertex 0.0615045 0.0148883 0.0458856
      vertex 0.0612918 0.0150019 0.0460085
      vertex 0.0665045 0.0148883 0.0545459
    endloop
  endfacet
  facet normal 0.363639 0.907573 -0.209947
    outer loop
      vertex 0.0665045 0.0148883 0.0545459
      vertex 0.0612918 0.0150019 0.0460085
      vertex 0.0662918 0.0150019 0.0546687
    endloop
  endfacet
  facet normal 0.276523 0.947653 -0.159651
    outer loop
      vertex 0.0612918 0.0150019 0.0460085
      vertex 0.0610696 0.0150884 0.0461367
      vertex 0.0662918 0.0150019 0.0546687
    endloop
  endfacet
  facet normal 0.27652 0.947655 -0.159649
    outer loop
      vertex 0.0662918 0.0150019 0.0546687
      vertex 0.0610696 0.0150884 0.0461367
      vertex 0.0660696 0.0150884 0.054797
    endloop
  endfacet
  facet normal 0.186169 0.976621 -0.107484
    outer loop
      vertex 0.0610696 0.0150884 0.0461367
      vertex 0.0608406 0.0151466 0.0462689
      vertex 0.0660696 0.0150884 0.054797
    endloop
  endfacet
  facet normal 0.186167 0.976621 -0.107484
    outer loop
      vertex 0.0660696 0.0150884 0.054797
      vertex 0.0608406 0.0151466 0.0462689
      vertex 0.0658406 0.0151466 0.0549292
    endloop
  endfacet
  facet normal 0.0936348 0.994138 -0.0540601
    outer loop
      vertex 0.0608406 0.0151466 0.0462689
      vertex 0.0606076 0.0151758 0.0464035
      vertex 0.0658406 0.0151466 0.0549292
    endloop
  endfacet
  facet normal 0.0936355 0.994138 -0.0540604
    outer loop
      vertex 0.0658406 0.0151466 0.0549292
      vertex 0.0606076 0.0151758 0.0464035
      vertex 0.0656076 0.0151758 0.0550637
    endloop
  endfacet
  facet normal 0 1 0
    outer loop
      vertex 0.0606076 0.0151758 0.0464035
      vertex 0.0603732 0.0151758 0.0465388
      vertex 0.0656076 0.0151758 0.0550637
    endloop
  endfacet
  facet normal 0 1 0
    outer loop
      vertex 0.0656076 0.0151758 0.0550637
      vertex 0.0603732 0.0151758 0.0465388
      vertex 0.0653732 0.0151758 0.0551991
    endloop
  endfacet
  facet normal -0.0936355 0.994138 0.0540604
    outer loop
      vertex 0.0603732 0.0151758 0.0465388
      vertex 0.0601401 0.0151466 0.0466734
      vertex 0.0653732 0.0151758 0.0551991
    endloop
  endfacet
  facet normal -0.0936355 0.994138 0.0540604
    outer loop
      vertex 0.0653732 0.0151758 0.0551991
      vertex 0.0601401 0.0151466 0.0466734
      vertex 0.0651401 0.0151466 0.0553336
    endloop
  endfacet
  facet normal -0.186169 0.976621 0.107484
    outer loop
      vertex 0.0601401 0.0151466 0.0466734
      vertex 0.0599112 0.0150884 0.0468056
      vertex 0.0651401 0.0151466 0.0553336
    endloop
  endfacet
  facet normal -0.186169 0.976621 0.107484
    outer loop
      vertex 0.0651401 0.0151466 0.0553336
      vertex 0.0599112 0.0150884 0.0468056
      vertex 0.0649112 0.0150884 0.0554658
    endloop
  endfacet
  facet normal -0.276523 0.947653 0.159651
    outer loop
      vertex 0.0599112 0.0150884 0.0468056
      vertex 0.059689 0.0150019 0.0469338
      vertex 0.0649112 0.0150884 0.0554658
    endloop
  endfacet
  facet normal -0.276524 0.947653 0.159651
    outer loop
      vertex 0.0649112 0.0150884 0.0554658
      vertex 0.059689 0.0150019 0.0469338
      vertex 0.064689 0.0150019 0.0555941
    endloop
  endfacet
  facet normal -0.363635 0.907575 0.209945
    outer loop
      vertex 0.059689 0.0150019 0.0469338
      vertex 0.0594762 0.0148883 0.0470567
      vertex 0.064689 0.0150019 0.0555941
    endloop
  endfacet
  facet normal -0.363631 0.907577 0.209943
    outer loop
      vertex 0.064689 0.0150019 0.0555941
      vertex 0.0594762 0.0148883 0.0470567
      vertex 0.0644762 0.0148883 0.0557169
    endloop
  endfacet
  facet normal -0.446479 0.856859 0.257775
    outer loop
      vertex 0.0594762 0.0148883 0.0470567
      vertex 0.0592754 0.0147487 0.0471726
      vertex 0.0644762 0.0148883 0.0557169
    endloop
  endfacet
  facet normal -0.446487 0.856854 0.257779
    outer loop
      vertex 0.0644762 0.0148883 0.0557169
      vertex 0.0592754 0.0147487 0.0471726
      vertex 0.0642754 0.0147487 0.0558329
    endloop
  endfacet
  facet normal -0.5241 0.79609 0.30259
    outer loop
      vertex 0.0592754 0.0147487 0.0471726
      vertex 0.0590887 0.0145849 0.0472804
      vertex 0.0642754 0.0147487 0.0558329
    endloop
  endfacet
  facet normal -0.524092 0.796096 0.302585
    outer loop
      vertex 0.0642754 0.0147487 0.0558329
      vertex 0.0590887 0.0145849 0.0472804
      vertex 0.0640887 0.0145849 0.0559406
    endloop
  endfacet
  facet normal -0.595565 0.725995 0.34385
    outer loop
      vertex 0.0590887 0.0145849 0.0472804
      vertex 0.0589186 0.0143987 0.0473786
      vertex 0.0640887 0.0145849 0.0559406
    endloop
  endfacet
  facet normal -0.595568 0.725992 0.343851
    outer loop
      vertex 0.0640887 0.0145849 0.0559406
      vertex 0.0589186 0.0143987 0.0473786
      vertex 0.0639186 0.0143987 0.0560389
    endloop
  endfacet
  facet normal -0.660053 0.647385 0.381082
    outer loop
      vertex 0.0589186 0.0143987 0.0473786
      vertex 0.0587668 0.0141924 0.0474663
      vertex 0.0639186 0.0143987 0.0560389
    endloop
  endfacet
  facet normal -0.660058 0.647378 0.381085
    outer loop
      vertex 0.0639186 0.0143987 0.0560389
      vertex 0.0587668 0.0141924 0.0474663
      vertex 0.0637668 0.0141924 0.0561265
    endloop
  endfacet
  facet normal -0.716799 0.561188 0.413845
    outer loop
      vertex 0.0587668 0.0141924 0.0474663
      vertex 0.0586352 0.0139684 0.0475422
      vertex 0.0637668 0.0141924 0.0561265
    endloop
  endfacet
  facet normal -0.716795 0.561196 0.413842
    outer loop
      vertex 0.0637668 0.0141924 0.0561265
      vertex 0.0586352 0.0139684 0.0475422
      vertex 0.0636352 0.0139684 0.0562025
    endloop
  endfacet
  facet normal -0.765146 0.468404 0.441757
    outer loop
      vertex 0.0586352 0.0139684 0.0475422
      vertex 0.0585254 0.0137292 0.0476056
      vertex 0.0636352 0.0139684 0.0562025
    endloop
  endfacet
  facet normal -0.765144 0.468409 0.441756
    outer loop
      vertex 0.0636352 0.0139684 0.0562025
      vertex 0.0585254 0.0137292 0.0476056
      vertex 0.0635254 0.0137292 0.0562659
    endloop
  endfacet
  facet normal -0.804515 0.370145 0.464487
    outer loop
      vertex 0.0585254 0.0137292 0.0476056
      vertex 0.0584387 0.0134777 0.0476557
      vertex 0.0635254 0.0137292 0.0562659
    endloop
  endfacet
  facet normal -0.804521 0.370129 0.46449
    outer loop
      vertex 0.0635254 0.0137292 0.0562659
      vertex 0.0584387 0.0134777 0.0476557
      vertex 0.0634387 0.0134777 0.056316
    endloop
  endfacet
  facet normal -0.834459 0.267527 0.481775
    outer loop
      vertex 0.0584387 0.0134777 0.0476557
      vertex 0.0583759 0.0132169 0.0476919
      vertex 0.0634387 0.0134777 0.056316
    endloop
  endfacet
  facet normal -0.834456 0.267538 0.481774
    outer loop
      vertex 0.0634387 0.0134777 0.056316
      vertex 0.0583759 0.0132169 0.0476919
      vertex 0.0633759 0.0132169 0.0563522
    endloop
  endfacet
  facet normal -0.854616 0.161786 0.493413
    outer loop
      vertex 0.0583759 0.0132169 0.0476919
      vertex 0.058338 0.0129498 0.0477138
      vertex 0.0633759 0.0132169 0.0563522
    endloop
  endfacet
  facet normal -0.854618 0.161774 0.493414
    outer loop
      vertex 0.0633759 0.0132169 0.0563522
      vertex 0.058338 0.0129498 0.0477138
      vertex 0.063338 0.0129498 0.0563741
    endloop
  endfacet
  facet normal -0.864755 0.0541402 0.499267
    outer loop
      vertex 0.058338 0.0129498 0.0477138
      vertex 0.0583253 0.0126795 0.0477211
      vertex 0.063338 0.0129498 0.0563741
    endloop
  endfacet
  facet normal -0.864755 0.0541521 0.499266
    outer loop
      vertex 0.063338 0.0129498 0.0563741
      vertex 0.0583253 0.0126795 0.0477211
      vertex 0.0633253 0.0126795 0.0563814
    endloop
  endfacet
  facet normal -0.864755 -0.0541402 0.499267
    outer loop
      vertex 0.0583253 0.0126795 0.0477211
      vertex 0.058338 0.0124092 0.0477138
      vertex 0.0633253 0.0126795 0.0563814
    endloop
  endfacet
  facet normal -0.864755 -0.0541521 0.499267
    outer loop
      vertex 0.0633253 0.0126795 0.0563814
      vertex 0.058338 0.0124092 0.0477138
      vertex 0.063338 0.0124092 0.0563741
    endloop
  endfacet
  facet normal -0.854616 -0.161786 0.493413
    outer loop
      vertex 0.058338 0.0124092 0.0477138
      vertex 0.0583759 0.0121421 0.0476919
      vertex 0.063338 0.0124092 0.0563741
    endloop
  endfacet
  facet normal -0.854618 -0.161774 0.493414
    outer loop
      vertex 0.063338 0.0124092 0.0563741
      vertex 0.0583759 0.0121421 0.0476919
      vertex 0.0633759 0.0121421 0.0563522
    endloop
  endfacet
  facet normal -0.834459 -0.267526 0.481775
    outer loop
      vertex 0.0583759 0.0121421 0.0476919
      vertex 0.0584387 0.0118812 0.0476557
      vertex 0.0633759 0.0121421 0.0563522
    endloop
  endfacet
  facet normal -0.834457 -0.267537 0.481774
    outer loop
      vertex 0.0633759 0.0121421 0.0563522
      vertex 0.0584387 0.0118812 0.0476557
      vertex 0.0634387 0.0118812 0.056316
    endloop
  endfacet
  facet normal -0.804515 -0.370146 0.464487
    outer loop
      vertex 0.0584387 0.0118812 0.0476557
      vertex 0.0585254 0.0116298 0.0476056
      vertex 0.0634387 0.0118812 0.056316
    endloop
  endfacet
  facet normal -0.80452 -0.37013 0.46449
    outer loop
      vertex 0.0634387 0.0118812 0.056316
      vertex 0.0585254 0.0116298 0.0476056
      vertex 0.0635254 0.0116298 0.0562659
    endloop
  endfacet
  facet normal -0.765147 -0.468402 0.441758
    outer loop
      vertex 0.0585254 0.0116298 0.0476056
      vertex 0.0586352 0.0113906 0.0475422
      vertex 0.0635254 0.0116298 0.0562659
    endloop
  endfacet
  facet normal -0.765144 -0.468407 0.441756
    outer loop
      vertex 0.0635254 0.0116298 0.0562659
      vertex 0.0586352 0.0113906 0.0475422
      vertex 0.0636352 0.0113906 0.0562025
    endloop
  endfacet
  facet normal -0.716798 -0.561189 0.413844
    outer loop
      vertex 0.0586352 0.0113906 0.0475422
      vertex 0.0587668 0.0111666 0.0474663
      vertex 0.0636352 0.0113906 0.0562025
    endloop
  endfacet
  facet normal -0.716794 -0.561197 0.413841
    outer loop
      vertex 0.0636352 0.0113906 0.0562025
      vertex 0.0587668 0.0111666 0.0474663
      vertex 0.0637668 0.0111666 0.0561265
    endloop
  endfacet
  facet normal -0.660053 -0.647385 0.381082
    outer loop
      vertex 0.0587668 0.0111666 0.0474663
      vertex 0.0589186 0.0109602 0.0473786
      vertex 0.0637668 0.0111666 0.0561265
    endloop
  endfacet
  facet normal -0.660058 -0.647378 0.381085
    outer loop
      vertex 0.0637668 0.0111666 0.0561265
      vertex 0.0589186 0.0109602 0.0473786
      vertex 0.0639186 0.0109602 0.0560389
    endloop
  endfacet
  facet normal -0.595565 -0.725995 0.34385
    outer loop
      vertex 0.0589186 0.0109602 0.0473786
      vertex 0.0590887 0.0107741 0.0472804
      vertex 0.0639186 0.0109602 0.0560389
    endloop
  endfacet
  facet normal -0.595568 -0.725992 0.343851
    outer loop
      vertex 0.0639186 0.0109602 0.0560389
      vertex 0.0590887 0.0107741 0.0472804
      vertex 0.0640887 0.0107741 0.0559406
    endloop
  endfacet
  facet normal -0.5241 -0.79609 0.302589
    outer loop
      vertex 0.0590887 0.0107741 0.0472804
      vertex 0.0592754 0.0106103 0.0471726
      vertex 0.0640887 0.0107741 0.0559406
    endloop
  endfacet
  facet normal -0.524092 -0.796096 0.302585
    outer loop
      vertex 0.0640887 0.0107741 0.0559406
      vertex 0.0592754 0.0106103 0.0471726
      vertex 0.0642754 0.0106103 0.0558329
    endloop
  endfacet
  facet normal -0.446482 -0.856858 0.257776
    outer loop
      vertex 0.0592754 0.0106103 0.0471726
      vertex 0.0594762 0.0104707 0.0470567
      vertex 0.0642754 0.0106103 0.0558329
    endloop
  endfacet
  facet normal -0.446489 -0.856853 0.25778
    outer loop
      vertex 0.0642754 0.0106103 0.0558329
      vertex 0.0594762 0.0104707 0.0470567
      vertex 0.0644762 0.0104707 0.0557169
    endloop
  endfacet
  facet normal -0.363633 -0.907576 0.209943
    outer loop
      vertex 0.0594762 0.0104707 0.0470567
      vertex 0.059689 0.0103571 0.0469338
      vertex 0.0644762 0.0104707 0.0557169
    endloop
  endfacet
  facet normal -0.363629 -0.907578 0.209941
    outer loop
      vertex 0.0644762 0.0104707 0.0557169
      vertex 0.059689 0.0103571 0.0469338
      vertex 0.064689 0.0103571 0.0555941
    endloop
  endfacet
  facet normal -0.276523 -0.947653 0.159651
    outer loop
      vertex 0.059689 0.0103571 0.0469338
      vertex 0.0599112 0.0102706 0.0468056
      vertex 0.064689 0.0103571 0.0555941
    endloop
  endfacet
  facet normal -0.276524 -0.947653 0.159651
    outer loop
      vertex 0.064689 0.0103571 0.0555941
      vertex 0.0599112 0.0102706 0.0468056
      vertex 0.0649112 0.0102706 0.0554658
    endloop
  endfacet
  facet normal -0.186169 -0.976621 0.107484
    outer loop
      vertex 0.0599112 0.0102706 0.0468056
      vertex 0.0601401 0.0102124 0.0466734
      vertex 0.0649112 0.0102706 0.0554658
    endloop
  endfacet
  facet normal -0.186169 -0.976621 0.107484
    outer loop
      vertex 0.0649112 0.0102706 0.0554658
      vertex 0.0601401 0.0102124 0.0466734
      vertex 0.0651401 0.0102124 0.0553336
    endloop
  endfacet
  facet normal -0.0936355 -0.994138 0.0540604
    outer loop
      vertex 0.0601401 0.0102124 0.0466734
      vertex 0.0603732 0.0101832 0.0465388
      vertex 0.0651401 0.0102124 0.0553336
    endloop
  endfacet
  facet normal -0.0936355 -0.994138 0.0540604
    outer loop
      vertex 0.0651401 0.0102124 0.0553336
      vertex 0.0603732 0.0101832 0.0465388
      vertex 0.0653732 0.0101832 0.0551991
    endloop
  endfacet
  facet normal 0 -1 0
    outer loop
      vertex 0.0603732 0.0101832 0.0465388
      vertex 0.0606076 0.0101832 0.0464035
      vertex 0.0653732 0.0101832 0.0551991
    endloop
  endfacet
  facet normal 0 -1 0
    outer loop
      vertex 0.0653732 0.0101832 0.0551991
      vertex 0.0606076 0.0101832 0.0464035
      vertex 0.0656076 0.0101832 0.0550637
    endloop
  endfacet
  facet normal 0.0936348 -0.994138 -0.0540601
    outer loop
      vertex 0.0606076 0.0101832 0.0464035
      vertex 0.0608406 0.0102124 0.0462689
      vertex 0.0656076 0.0101832 0.0550637
    endloop
  endfacet
  facet normal 0.0936355 -0.994138 -0.0540604
    outer loop
      vertex 0.0656076 0.0101832 0.0550637
      vertex 0.0608406 0.0102124 0.0462689
      vertex 0.0658406 0.0102124 0.0549292
    endloop
  endfacet
  facet normal 0.186169 -0.976621 -0.107484
    outer loop
      vertex 0.0608406 0.0102124 0.0462689
      vertex 0.0610696 0.0102706 0.0461367
      vertex 0.0658406 0.0102124 0.0549292
    endloop
  endfacet
  facet normal 0.186167 -0.976621 -0.107484
    outer loop
      vertex 0.0658406 0.0102124 0.0549292
      vertex 0.0610696 0.0102706 0.0461367
      vertex 0.0660696 0.0102706 0.054797
    endloop
  endfacet
  facet normal 0.276523 -0.947653 -0.159651
    outer loop
      vertex 0.0610696 0.0102706 0.0461367
      vertex 0.0612918 0.0103571 0.0460085
      vertex 0.0660696 0.0102706 0.054797
    endloop
  endfacet
  facet normal 0.27652 -0.947655 -0.159649
    outer loop
      vertex 0.0660696 0.0102706 0.054797
      vertex 0.0612918 0.0103571 0.0460085
      vertex 0.0662918 0.0103571 0.0546687
    endloop
  endfacet
  facet normal 0.363633 -0.907576 -0.209944
    outer loop
      vertex 0.0612918 0.0103571 0.0460085
      vertex 0.0615045 0.0104707 0.0458856
      vertex 0.0662918 0.0103571 0.0546687
    endloop
  endfacet
  facet normal 0.363637 -0.907574 -0.209946
    outer loop
      vertex 0.0662918 0.0103571 0.0546687
      vertex 0.0615045 0.0104707 0.0458856
      vertex 0.0665045 0.0104707 0.0545459
    endloop
  endfacet
  facet normal 0.446482 -0.856858 -0.257776
    outer loop
      vertex 0.0615045 0.0104707 0.0458856
      vertex 0.0617054 0.0106103 0.0457697
      vertex 0.0665045 0.0104707 0.0545459
    endloop
  endfacet
  facet normal 0.446489 -0.856853 -0.25778
    outer loop
      vertex 0.0665045 0.0104707 0.0545459
      vertex 0.0617054 0.0106103 0.0457697
      vertex 0.0667054 0.0106103 0.0544299
    endloop
  endfacet
  facet normal 0.5241 -0.79609 -0.302589
    outer loop
      vertex 0.0617054 0.0106103 0.0457697
      vertex 0.061892 0.0107741 0.0456619
      vertex 0.0667054 0.0106103 0.0544299
    endloop
  endfacet
  facet normal 0.524092 -0.796096 -0.302585
    outer loop
      vertex 0.0667054 0.0106103 0.0544299
      vertex 0.061892 0.0107741 0.0456619
      vertex 0.066892 0.0107741 0.0543222
    endloop
  endfacet
  facet normal 0.595565 -0.725995 -0.34385
    outer loop
      vertex 0.061892 0.0107741 0.0456619
      vertex 0.0620622 0.0109602 0.0455636
      vertex 0.066892 0.0107741 0.0543222
    endloop
  endfacet
  facet normal 0.595565 -0.725995 -0.34385
    outer loop
      vertex 0.066892 0.0107741 0.0543222
      vertex 0.0620622 0.0109602 0.0455636
      vertex 0.0670622 0.0109602 0.0542239
    endloop
  endfacet
  facet normal 0.660053 -0.647385 -0.381082
    outer loop
      vertex 0.0620622 0.0109602 0.0455636
      vertex 0.062214 0.0111666 0.045476
      vertex 0.0670622 0.0109602 0.0542239
    endloop
  endfacet
  facet normal 0.660048 -0.647392 -0.381079
    outer loop
      vertex 0.0670622 0.0109602 0.0542239
      vertex 0.062214 0.0111666 0.045476
      vertex 0.067214 0.0111666 0.0541363
    endloop
  endfacet
  facet normal 0.716798 -0.561189 -0.413844
    outer loop
      vertex 0.062214 0.0111666 0.045476
      vertex 0.0623455 0.0113906 0.0454001
      vertex 0.067214 0.0111666 0.0541363
    endloop
  endfacet
  facet normal 0.716803 -0.561181 -0.413847
    outer loop
      vertex 0.067214 0.0111666 0.0541363
      vertex 0.0623455 0.0113906 0.0454001
      vertex 0.0673455 0.0113906 0.0540603
    endloop
  endfacet
  facet normal 0.765143 -0.468411 -0.441755
    outer loop
      vertex 0.0623455 0.0113906 0.0454001
      vertex 0.0624553 0.0116298 0.0453367
      vertex 0.0673455 0.0113906 0.0540603
    endloop
  endfacet
  facet normal 0.765147 -0.468402 -0.441757
    outer loop
      vertex 0.0673455 0.0113906 0.0540603
      vertex 0.0624553 0.0116298 0.0453367
      vertex 0.0674553 0.0116298 0.0539969
    endloop
  endfacet
  facet normal 0.804518 -0.370136 -0.464489
    outer loop
      vertex 0.0624553 0.0116298 0.0453367
      vertex 0.0625421 0.0118812 0.0452866
      vertex 0.0674553 0.0116298 0.0539969
    endloop
  endfacet
  facet normal 0.804511 -0.370156 -0.464485
    outer loop
      vertex 0.0674553 0.0116298 0.0539969
      vertex 0.0625421 0.0118812 0.0452866
      vertex 0.0675421 0.0118812 0.0539468
    endloop
  endfacet
  facet normal 0.834457 -0.267537 -0.481774
    outer loop
      vertex 0.0625421 0.0118812 0.0452866
      vertex 0.0626048 0.0121421 0.0452504
      vertex 0.0675421 0.0118812 0.0539468
    endloop
  endfacet
  facet normal 0.834462 -0.267515 -0.481777
    outer loop
      vertex 0.0675421 0.0118812 0.0539468
      vertex 0.0626048 0.0121421 0.0452504
      vertex 0.0676048 0.0121421 0.0539106
    endloop
  endfacet
  facet normal 0.854618 -0.161774 -0.493414
    outer loop
      vertex 0.0626048 0.0121421 0.0452504
      vertex 0.0626428 0.0124092 0.0452285
      vertex 0.0676048 0.0121421 0.0539106
    endloop
  endfacet
  facet normal 0.854615 -0.161797 -0.493412
    outer loop
      vertex 0.0676048 0.0121421 0.0539106
      vertex 0.0626428 0.0124092 0.0452285
      vertex 0.0676428 0.0124092 0.0538887
    endloop
  endfacet
  facet normal 0.864756 -0.0541283 -0.499267
    outer loop
      vertex 0.0626428 0.0124092 0.0452285
      vertex 0.0626554 0.0126795 0.0452211
      vertex 0.0676428 0.0124092 0.0538887
    endloop
  endfacet
  facet normal 0.864756 -0.0541283 -0.499267
    outer loop
      vertex 0.0676428 0.0124092 0.0538887
      vertex 0.0626554 0.0126795 0.0452211
      vertex 0.0676554 0.0126795 0.0538814
    endloop
  endfacet
  facet normal 0.864756 0.0541283 -0.499267
    outer loop
      vertex 0.0626554 0.0126795 0.0452211
      vertex 0.0626428 0.0129498 0.0452285
      vertex 0.0676554 0.0126795 0.0538814
    endloop
  endfacet
  facet normal 0.433013 0.866025 -0.25
    outer loop
      vertex 0.0739054 0.0195096 0.073367
      vertex 0.0814054 0.0145096 0.0690368
      vertex 0.0639054 0.0195096 0.0560465
    endloop
  endfacet
  facet normal 0.433013 0.866025 -0.25
    outer loop
      vertex 0.0814054 0.0145096 0.0690368
      vertex 0.0714054 0.0145096 0.0517163
      vertex 0.0639054 0.0195096 0.0560465
    endloop
  endfacet
  facet normal 0.75 -0.5 -0.433013
    outer loop
      vertex 0.0814054 0.0145096 0.0690368
      vertex 0.0770753 0.00584936 0.0715368
      vertex 0.0714054 0.0145096 0.0517163
    endloop
  endfacet
  facet normal 0.75 -0.5 -0.433013
    outer loop
      vertex 0.0770753 0.00584936 0.0715368
      vertex 0.0670753 0.00584936 0.0542163
      vertex 0.0714054 0.0145096 0.0517163
    endloop
  endfacet
  facet normal -0.75 0.5 0.433013
    outer loop
      vertex 0.0695753 0.0108494 0.075867
      vertex 0.0739054 0.0195096 0.073367
      vertex 0.0595753 0.0108494 0.0585465
    endloop
  endfacet
  facet normal -0.75 0.5 0.433013
    outer loop
      vertex 0.0739054 0.0195096 0.073367
      vertex 0.0639054 0.0195096 0.0560465
      vertex 0.0595753 0.0108494 0.0585465
    endloop
  endfacet
  facet normal -0.433013 -0.866025 0.25
    outer loop
      vertex 0.0770753 0.00584936 0.0715368
      vertex 0.0695753 0.0108494 0.075867
      vertex 0.0670753 0.00584936 0.0542163
    endloop
  endfacet
  facet normal -0.433013 -0.866025 0.25
    outer loop
      vertex 0.0695753 0.0108494 0.075867
      vertex 0.0595753 0.0108494 0.0585465
      vertex 0.0670753 0.00584936 0.0542163
    endloop
  endfacet
  facet normal 0.5 -2.93681e-7 0.866025
    outer loop
      vertex 0.0739054 0.0195096 0.073367
      vertex 0.0695753 0.0108494 0.075867
      vertex 0.0814054 0.0145096 0.0690368
    endloop
  endfacet
  facet normal 0.5 -2.93681e-7 0.866025
    outer loop
      vertex 0.0695753 0.0108494 0.075867
      vertex 0.0770753 0.00584936 0.0715368
      vertex 0.0814054 0.0145096 0.0690368
    endloop
  endfacet
  facet normal -0.500002 4.08548e-6 -0.866024
    outer loop
      vertex 0.0634387 0.0134777 0.056316
      vertex 0.0633759 0.0132169 0.0563522
      vertex 0.0595753 0.0108494 0.0585465
    endloop
  endfacet
  facet normal -0.499997 -7.51475e-6 -0.866027
    outer loop
      vertex 0.0633759 0.0132169 0.0563522
      vertex 0.063338 0.0129498 0.0563741
      vertex 0.0595753 0.0108494 0.0585465
    endloop
  endfacet
  facet normal -0.500003 7.47889e-6 -0.866024
    outer loop
      vertex 0.063338 0.0129498 0.0563741
      vertex 0.0633253 0.0126795 0.0563814
      vertex 0.0595753 0.0108494 0.0585465
    endloop
  endfacet
  facet normal -0.499998 -7.14372e-6 -0.866027
    outer loop
      vertex 0.0595753 0.0108494 0.0585465
      vertex 0.0633253 0.0126795 0.0563814
      vertex 0.063338 0.0124092 0.0563741
    endloop
  endfacet
  facet normal -0.499993 -1.32305e-5 -0.86603
    outer loop
      vertex 0.0714054 0.0145096 0.0517163
      vertex 0.0675421 0.0118812 0.0539468
      vertex 0.0676048 0.0121421 0.0539106
    endloop
  endfacet
  facet normal -0.499997 -6.52091e-6 -0.866027
    outer loop
      vertex 0.0676428 0.0129498 0.0538887
      vertex 0.0676048 0.0132169 0.0539106
      vertex 0.0714054 0.0145096 0.0517163
    endloop
  endfacet
  facet normal -0.500002 1.03985e-5 -0.866024
    outer loop
      vertex 0.0676048 0.0132169 0.0539106
      vertex 0.0675421 0.0134777 0.0539468
      vertex 0.0714054 0.0145096 0.0517163
    endloop
  endfacet
  facet normal -0.499998 -9.21619e-6 -0.866027
    outer loop
      vertex 0.0714054 0.0145096 0.0517163
      vertex 0.0675421 0.0134777 0.0539468
      vertex 0.0674553 0.0137292 0.0539969
    endloop
  endfacet
  facet normal -0.499999 7.57076e-7 -0.866026
    outer loop
      vertex 0.0674553 0.0137292 0.0539969
      vertex 0.0673455 0.0139684 0.0540603
      vertex 0.0714054 0.0145096 0.0517163
    endloop
  endfacet
  facet normal -0.5 6.62141e-6 -0.866025
    outer loop
      vertex 0.0673455 0.0139684 0.0540603
      vertex 0.067214 0.0141924 0.0541363
      vertex 0.0714054 0.0145096 0.0517163
    endloop
  endfacet
  facet normal -0.499999 -3.22971e-6 -0.866026
    outer loop
      vertex 0.0714054 0.0145096 0.0517163
      vertex 0.067214 0.0141924 0.0541363
      vertex 0.0670622 0.0143987 0.0542239
    endloop
  endfacet
  facet normal -0.500002 6.5346e-6 -0.866024
    outer loop
      vertex 0.063338 0.0124092 0.0563741
      vertex 0.0633759 0.0121421 0.0563522
      vertex 0.0595753 0.0108494 0.0585465
    endloop
  endfacet
  facet normal -0.5 -3.21089e-6 -0.866026
    outer loop
      vertex 0.0633759 0.0121421 0.0563522
      vertex 0.0634387 0.0118812 0.056316
      vertex 0.0595753 0.0108494 0.0585465
    endloop
  endfacet
  facet normal -0.499999 -7.66288e-6 -0.866026
    outer loop
      vertex 0.0595753 0.0108494 0.0585465
      vertex 0.0634387 0.0118812 0.056316
      vertex 0.0635254 0.0116298 0.0562659
    endloop
  endfacet
  facet normal -0.500003 7.49916e-6 -0.866024
    outer loop
      vertex 0.0676048 0.0121421 0.0539106
      vertex 0.0676428 0.0124092 0.0538887
      vertex 0.0714054 0.0145096 0.0517163
    endloop
  endfacet
  facet normal -0.499997 -6.7156e-6 -0.866027
    outer loop
      vertex 0.0676428 0.0124092 0.0538887
      vertex 0.0676554 0.0126795 0.0538814
      vertex 0.0714054 0.0145096 0.0517163
    endloop
  endfacet
  facet normal -0.500001 6.41478e-6 -0.866025
    outer loop
      vertex 0.0714054 0.0145096 0.0517163
      vertex 0.0676554 0.0126795 0.0538814
      vertex 0.0676428 0.0129498 0.0538887
    endloop
  endfacet
  facet normal -0.499988 8.09659e-6 -0.866032
    outer loop
      vertex 0.0662918 0.0150019 0.0546687
      vertex 0.0660696 0.0150884 0.054797
      vertex 0.0639054 0.0195096 0.0560465
    endloop
  endfacet
  facet normal -0.500002 1.27278e-5 -0.866024
    outer loop
      vertex 0.0635254 0.0116298 0.0562659
      vertex 0.0636352 0.0113906 0.0562025
      vertex 0.0595753 0.0108494 0.0585465
    endloop
  endfacet
  facet normal -0.5 -9.73092e-6 -0.866026
    outer loop
      vertex 0.0636352 0.0113906 0.0562025
      vertex 0.0637668 0.0111666 0.0561265
      vertex 0.0595753 0.0108494 0.0585465
    endloop
  endfacet
  facet normal -0.500001 1.33383e-5 -0.866025
    outer loop
      vertex 0.0595753 0.0108494 0.0585465
      vertex 0.0637668 0.0111666 0.0561265
      vertex 0.0639186 0.0109602 0.0560389
    endloop
  endfacet
  facet normal -0.500005 -4.10656e-6 -0.866022
    outer loop
      vertex 0.0644762 0.0104707 0.0557169
      vertex 0.0670753 0.00584936 0.0542163
      vertex 0.0642754 0.0106103 0.0558329
    endloop
  endfacet
  facet normal -0.5 1.15902e-7 -0.866025
    outer loop
      vertex 0.0670753 0.00584936 0.0542163
      vertex 0.0595753 0.0108494 0.0585465
      vertex 0.0642754 0.0106103 0.0558329
    endloop
  endfacet
  facet normal -0.5 -2.04752e-6 -0.866025
    outer loop
      vertex 0.0642754 0.0106103 0.0558329
      vertex 0.0595753 0.0108494 0.0585465
      vertex 0.0640887 0.0107741 0.0559406
    endloop
  endfacet
  facet normal -0.5 -1.46402e-5 -0.866025
    outer loop
      vertex 0.0595753 0.0108494 0.0585465
      vertex 0.0639186 0.0109602 0.0560389
      vertex 0.0640887 0.0107741 0.0559406
    endloop
  endfacet
  facet normal -0.499996 -1.58111e-7 -0.866028
    outer loop
      vertex 0.0670622 0.0109602 0.0542239
      vertex 0.067214 0.0111666 0.0541363
      vertex 0.0670753 0.00584936 0.0542163
    endloop
  endfacet
  facet normal -0.500009 2.8829e-7 -0.86602
    outer loop
      vertex 0.067214 0.0111666 0.0541363
      vertex 0.0673455 0.0113906 0.0540603
      vertex 0.0670753 0.00584936 0.0542163
    endloop
  endfacet
  facet normal -0.499999 -3.41386e-7 -0.866026
    outer loop
      vertex 0.0670753 0.00584936 0.0542163
      vertex 0.0673455 0.0113906 0.0540603
      vertex 0.0714054 0.0145096 0.0517163
    endloop
  endfacet
  facet normal -0.499998 -1.24122e-6 -0.866026
    outer loop
      vertex 0.0673455 0.0113906 0.0540603
      vertex 0.0674553 0.0116298 0.0539969
      vertex 0.0714054 0.0145096 0.0517163
    endloop
  endfacet
  facet normal -0.500006 1.31537e-5 -0.866022
    outer loop
      vertex 0.0714054 0.0145096 0.0517163
      vertex 0.0674553 0.0116298 0.0539969
      vertex 0.0675421 0.0118812 0.0539468
    endloop
  endfacet
  facet normal -0.499999 3.72499e-6 -0.866026
    outer loop
      vertex 0.0670622 0.0143987 0.0542239
      vertex 0.066892 0.0145849 0.0543222
      vertex 0.0714054 0.0145096 0.0517163
    endloop
  endfacet
  facet normal -0.5 -1.08899e-6 -0.866026
    outer loop
      vertex 0.066892 0.0145849 0.0543222
      vertex 0.0667054 0.0147487 0.0544299
      vertex 0.0714054 0.0145096 0.0517163
    endloop
  endfacet
  facet normal -0.499999 7.04481e-7 -0.866026
    outer loop
      vertex 0.0714054 0.0145096 0.0517163
      vertex 0.0667054 0.0147487 0.0544299
      vertex 0.0639054 0.0195096 0.0560465
    endloop
  endfacet
  facet normal -0.500005 -3.92926e-6 -0.866022
    outer loop
      vertex 0.0667054 0.0147487 0.0544299
      vertex 0.0665045 0.0148883 0.0545459
      vertex 0.0639054 0.0195096 0.0560465
    endloop
  endfacet
  facet normal -0.500006 -4.41874e-6 -0.866022
    outer loop
      vertex 0.0639054 0.0195096 0.0560465
      vertex 0.0665045 0.0148883 0.0545459
      vertex 0.0662918 0.0150019 0.0546687
    endloop
  endfacet
  facet normal -0.499987 9.50332e-6 -0.866033
    outer loop
      vertex 0.0644762 0.0104707 0.0557169
      vertex 0.064689 0.0103571 0.0555941
      vertex 0.0670753 0.00584936 0.0542163
    endloop
  endfacet
  facet normal -0.500018 -1.18638e-5 -0.866015
    outer loop
      vertex 0.064689 0.0103571 0.0555941
      vertex 0.0649112 0.0102706 0.0554658
      vertex 0.0670753 0.00584936 0.0542163
    endloop
  endfacet
  facet normal -0.499991 5.78241e-6 -0.866031
    outer loop
      vertex 0.0670753 0.00584936 0.0542163
      vertex 0.0649112 0.0102706 0.0554658
      vertex 0.0651401 0.0102124 0.0553336
    endloop
  endfacet
  facet normal -0.500002 -9.08399e-7 -0.866024
    outer loop
      vertex 0.0658406 0.0102124 0.0549292
      vertex 0.0660696 0.0102706 0.054797
      vertex 0.0670753 0.00584936 0.0542163
    endloop
  endfacet
  facet normal -0.499991 2.33915e-6 -0.86603
    outer loop
      vertex 0.0660696 0.0102706 0.054797
      vertex 0.0662918 0.0103571 0.0546687
      vertex 0.0670753 0.00584936 0.0542163
    endloop
  endfacet
  facet normal -0.500004 -5.98659e-7 -0.866023
    outer loop
      vertex 0.0670753 0.00584936 0.0542163
      vertex 0.0662918 0.0103571 0.0546687
      vertex 0.0665045 0.0104707 0.0545459
    endloop
  endfacet
  facet normal -0.499992 1.5314e-6 -0.86603
    outer loop
      vertex 0.0639054 0.0195096 0.0560465
      vertex 0.064689 0.0150019 0.0555941
      vertex 0.0644762 0.0148883 0.0557169
    endloop
  endfacet
  facet normal -0.500003 -4.46714e-7 -0.866024
    outer loop
      vertex 0.0665045 0.0104707 0.0545459
      vertex 0.0667054 0.0106103 0.0544299
      vertex 0.0670753 0.00584936 0.0542163
    endloop
  endfacet
  facet normal -0.499999 -3.31763e-9 -0.866026
    outer loop
      vertex 0.0667054 0.0106103 0.0544299
      vertex 0.066892 0.0107741 0.0543222
      vertex 0.0670753 0.00584936 0.0542163
    endloop
  endfacet
  facet normal -0.500002 -1.8033e-7 -0.866024
    outer loop
      vertex 0.0670753 0.00584936 0.0542163
      vertex 0.066892 0.0107741 0.0543222
      vertex 0.0670622 0.0109602 0.0542239
    endloop
  endfacet
  facet normal -0.500003 -3.47246e-7 -0.866024
    outer loop
      vertex 0.0644762 0.0148883 0.0557169
      vertex 0.0642754 0.0147487 0.0558329
      vertex 0.0639054 0.0195096 0.0560465
    endloop
  endfacet
  facet normal -0.499999 9.48185e-8 -0.866026
    outer loop
      vertex 0.0642754 0.0147487 0.0558329
      vertex 0.0640887 0.0145849 0.0559406
      vertex 0.0639054 0.0195096 0.0560465
    endloop
  endfacet
  facet normal -0.499989 5.95007e-7 -0.866032
    outer loop
      vertex 0.0639054 0.0195096 0.0560465
      vertex 0.0640887 0.0145849 0.0559406
      vertex 0.0639186 0.0143987 0.0560389
    endloop
  endfacet
  facet normal -0.500015 5.05513e-7 -0.866017
    outer loop
      vertex 0.0639186 0.0143987 0.0560389
      vertex 0.0637668 0.0141924 0.0561265
      vertex 0.0639054 0.0195096 0.0560465
    endloop
  endfacet
  facet normal -0.499986 -4.8443e-7 -0.866033
    outer loop
      vertex 0.0637668 0.0141924 0.0561265
      vertex 0.0636352 0.0139684 0.0562025
      vertex 0.0639054 0.0195096 0.0560465
    endloop
  endfacet
  facet normal -0.500001 4.43808e-7 -0.866025
    outer loop
      vertex 0.0639054 0.0195096 0.0560465
      vertex 0.0636352 0.0139684 0.0562025
      vertex 0.0595753 0.0108494 0.0585465
    endloop
  endfacet
  facet normal -0.499988 -2.08675e-5 -0.866032
    outer loop
      vertex 0.0636352 0.0139684 0.0562025
      vertex 0.0635254 0.0137292 0.0562659
      vertex 0.0595753 0.0108494 0.0585465
    endloop
  endfacet
  facet normal -0.500006 1.09363e-5 -0.866022
    outer loop
      vertex 0.0595753 0.0108494 0.0585465
      vertex 0.0635254 0.0137292 0.0562659
      vertex 0.0634387 0.0134777 0.056316
    endloop
  endfacet
  facet normal -0.5 3.99011e-7 -0.866026
    outer loop
      vertex 0.0651401 0.0102124 0.0553336
      vertex 0.0653732 0.0101832 0.0551991
      vertex 0.0670753 0.00584936 0.0542163
    endloop
  endfacet
  facet normal -0.500005 -2.51407e-6 -0.866022
    outer loop
      vertex 0.0653732 0.0101832 0.0551991
      vertex 0.0656076 0.0101832 0.0550637
      vertex 0.0670753 0.00584936 0.0542163
    endloop
  endfacet
  facet normal -0.5 -1.83765e-8 -0.866026
    outer loop
      vertex 0.0670753 0.00584936 0.0542163
      vertex 0.0656076 0.0101832 0.0550637
      vertex 0.0658406 0.0102124 0.0549292
    endloop
  endfacet
  facet normal -0.500002 -1.13293e-6 -0.866024
    outer loop
      vertex 0.0660696 0.0150884 0.054797
      vertex 0.0658406 0.0151466 0.0549292
      vertex 0.0639054 0.0195096 0.0560465
    endloop
  endfacet
  facet normal -0.5 5.20148e-7 -0.866026
    outer loop
      vertex 0.0658406 0.0151466 0.0549292
      vertex 0.0656076 0.0151758 0.0550637
      vertex 0.0639054 0.0195096 0.0560465
    endloop
  endfacet
  facet normal -0.500005 -2.39889e-6 -0.866022
    outer loop
      vertex 0.0639054 0.0195096 0.0560465
      vertex 0.0656076 0.0151758 0.0550637
      vertex 0.0653732 0.0151758 0.0551991
    endloop
  endfacet
  facet normal -0.5 9.20879e-8 -0.866026
    outer loop
      vertex 0.0653732 0.0151758 0.0551991
      vertex 0.0651401 0.0151466 0.0553336
      vertex 0.0639054 0.0195096 0.0560465
    endloop
  endfacet
  facet normal -0.499992 2.91836e-6 -0.86603
    outer loop
      vertex 0.0651401 0.0151466 0.0553336
      vertex 0.0649112 0.0150884 0.0554658
      vertex 0.0639054 0.0195096 0.0560465
    endloop
  endfacet
  facet normal -0.500013 -3.42589e-6 -0.866018
    outer loop
      vertex 0.0639054 0.0195096 0.0560465
      vertex 0.0649112 0.0150884 0.0554658
      vertex 0.064689 0.0150019 0.0555941
    endloop
  endfacet
endsolid Mesh
